<?xml version="1.0" encoding="UTF-8" standalone="no"?>
<!DOCTYPE svg PUBLIC "-//W3C//DTD SVG 1.1//EN" "http://www.w3.org/Graphics/SVG/1.1/DTD/svg11.dtd">
<!-- Created with Vectornator (http://vectornator.io/) -->
<svg height="48.0px" stroke-miterlimit="10" style="fill-rule:nonzero;clip-rule:evenodd;stroke-linecap:round;stroke-linejoin:round;" version="1.1" viewBox="0 0 48 48" width="48.0px" xml:space="preserve" xmlns="http://www.w3.org/2000/svg" xmlns:xlink="http://www.w3.org/1999/xlink">
<defs/>
<g id="Layer-4">
<path d="M23.8157 13.1798C21.6346 12.9375 19.1833 13.333 17.2822 14.442" fill="#539dee" fill-rule="nonzero" opacity="1" stroke="#539dee" stroke-linecap="round" stroke-linejoin="round" stroke-width="1.36114"/>
<path d="M16.5399 11.9561C14.8405 12.0269 11.9318 12.4573 9.94261 13.2492C10.0179 13.2544 10.1018 13.2472 10.1638 13.2662C10.9551 13.0856 11.6201 13.0327 11.861 13.2535C11.9651 13.3489 11.9917 13.4624 11.9673 13.5767C13.1411 13.1923 14.3346 12.8737 15.536 12.6963C16.0581 12.6191 18.0504 12.2809 18.5731 12.9472C19.0065 12.8935 19.4794 12.8728 19.9342 12.8962C22.018 12.7344 24.0935 12.8208 25.5319 13.4619C25.5506 13.4574 25.578 13.4446 25.5957 13.4406C26.9502 13.137 28.3307 12.9872 29.7174 12.9557C29.9244 12.951 30.1314 12.9436 30.3384 12.9387C29.7929 12.8412 29.3366 12.7397 29.3856 12.658C29.3919 12.6475 29.4041 12.6423 29.4112 12.6325C29.4049 12.6315 29.3922 12.6292 29.3856 12.6282C29.3947 12.6193 29.4021 12.6112 29.4069 12.5984C29.3261 12.5988 29.2393 12.6054 29.1559 12.6069C29.1107 12.6009 29.0742 12.5959 29.0241 12.5899C29.1417 12.5694 29.2615 12.5504 29.3814 12.5346C29.1854 12.2042 26.685 12.1797 26.5996 12.1773C26.0178 12.1614 25.4371 12.1803 24.8556 12.1858C24.8728 12.1968 24.9247 12.2028 24.9279 12.2156C24.9446 12.2825 23.7034 12.2188 23.6689 12.2156C23.5591 12.2053 23.4505 12.2116 23.3413 12.2028C22.4227 12.2334 21.5027 12.2745 20.585 12.3262C20.0497 12.3564 18.7663 12.6419 18.2115 12.3645C17.7336 12.1255 19.2736 12.2544 19.8066 12.2156C19.9495 12.2052 20.857 12.1621 21.6144 12.1263C21.4441 12.1237 21.2761 12.105 21.104 12.105C20.2273 12.105 19.347 12.1085 18.4667 12.1348C18.5059 12.1474 18.5209 12.1607 18.471 12.1773C18.2685 12.2448 18.0279 12.2179 17.7819 12.1731C17.1311 12.201 16.4802 12.2282 15.8338 12.2879C15.5551 12.3136 13.5034 12.8542 13.2349 12.5857C12.9631 12.3139 14.0089 12.5796 14.3876 12.5134C15.2415 12.3639 16.0807 12.1028 16.9482 12.0285C17.0063 12.0235 17.0644 12.0384 17.1226 12.037C16.9157 11.989 16.7166 11.9488 16.5399 11.9561ZM17.1226 12.037C17.3405 12.0874 17.5631 12.1332 17.7819 12.1731C18.0107 12.1633 18.2378 12.1416 18.4667 12.1348C18.365 12.102 18.0497 12.081 17.9138 12.0667C17.6521 12.0392 17.3867 12.0302 17.1226 12.037ZM21.6144 12.1263C22.1906 12.135 22.7658 12.1569 23.3413 12.2028C23.846 12.1861 24.3507 12.1906 24.8556 12.1858C24.5874 12.0152 23.0228 12.0596 21.6144 12.1263ZM29.3814 12.5346C29.3916 12.5519 29.4228 12.5667 29.4197 12.5857C29.4184 12.593 29.4093 12.5922 29.4069 12.5984C29.4179 12.5984 29.43 12.5985 29.4409 12.5984C29.4309 12.6099 29.42 12.6201 29.4112 12.6325C29.4683 12.6412 29.6164 12.6534 29.6451 12.658C30.0956 12.7301 30.6473 12.8058 31.1721 12.8707C30.7385 12.7342 30.3916 12.6389 30.0705 12.5857C30.6634 12.6141 31.1213 12.7047 31.3465 12.8919C31.7368 12.9421 32.0874 12.9919 32.4737 13.0706C32.7573 13.0637 33.0447 13.0766 33.3414 13.1003C32.0357 12.636 30.1462 12.0769 29.5217 12.5176C29.4743 12.5223 29.4282 12.5285 29.3814 12.5346ZM33.3414 13.1003C33.8886 13.2949 34.3486 13.4693 34.5452 13.5512C34.617 13.5811 35.0915 13.8114 35.4895 13.9723C35.4782 13.976 35.4667 13.9811 35.4555 13.9851C34.9384 13.8123 34.4282 13.6578 33.971 13.5427C33.5209 13.3242 33.0074 13.1792 32.4737 13.0706C32.2726 13.0754 32.0734 13.0862 31.891 13.1089C31.96 13.1368 32.0247 13.1648 32.0909 13.1939C31.9899 13.1823 31.8369 13.1617 31.6868 13.1429C31.5193 13.1723 31.3727 13.2132 31.2359 13.262C31.6411 13.2812 32.0401 13.3145 32.4269 13.3641C32.4377 13.3655 32.457 13.3708 32.4695 13.3726C32.6086 13.447 32.7395 13.5247 32.8438 13.6023C32.6011 13.8306 31.3878 13.7684 31.2785 13.7724C31.1842 13.7759 30.7524 13.8116 30.5894 13.8235C30.5655 13.8877 30.5362 13.9538 30.5256 14.0149C31.2494 14.0633 31.9667 14.1654 32.6864 14.2573C32.7847 14.2699 32.9441 14.2609 33.0905 14.2573C32.9968 14.3721 32.832 14.4593 32.6226 14.5253C32.7117 14.5467 32.8342 14.5719 32.9076 14.5891C32.5972 14.6235 32.1723 14.6485 31.7293 14.6742C31.4374 14.6999 31.1675 14.7105 30.8871 14.7124C30.827 14.7148 30.7779 14.7188 30.717 14.721C31.0157 15.0964 31.624 15.3579 32.3163 15.5376C30.6421 15.6439 28.2896 15.4693 27.9011 15.4058C27.8214 15.3927 27.2746 15.3542 26.8335 15.2229C26.6906 15.3204 26.4927 15.4037 26.2763 15.4823L35.0812 18.1621C35.1287 18.1316 35.1834 18.0866 35.2385 18.0557C35.2746 18.0355 35.2997 18.0219 35.3321 18.0047C35.389 17.9745 35.4437 17.9495 35.5023 17.9239C35.552 17.9021 35.5996 17.8826 35.6554 17.8643C35.7709 17.8265 35.8886 17.7995 36.0382 17.792C36.1648 17.7857 36.3028 17.8129 36.4423 17.8473C36.5134 17.8204 36.5864 17.7776 36.6592 17.758C36.7674 17.7289 36.8741 17.7073 36.9867 17.6984C37.1414 17.6197 37.2959 17.5549 37.4504 17.4943C37.7262 17.1055 37.6439 17.291 37.6333 17.4262C37.7058 17.4036 37.7786 17.386 37.8715 17.3752C38.1455 17.1815 38.5412 16.7654 38.8881 16.3628C38.8781 16.3395 38.8557 16.3063 38.8115 16.2607C38.8578 16.0417 38.8168 15.7682 38.5903 15.4058C38.4582 15.1944 38.2384 15.1157 37.9948 15.0825C37.6338 14.5093 36.7934 13.9441 35.9999 13.9128C35.7882 13.5275 34.5755 13.1992 33.3414 13.1003ZM38.8881 16.3628C38.8928 16.3739 38.9311 16.4049 38.9264 16.4096C38.899 16.437 39.0084 16.2583 39.0923 16.1204C39.0294 16.198 38.9599 16.2795 38.8881 16.3628ZM26.2763 15.4823L25.2937 15.1803C25.7469 15.1034 26.1247 14.9874 26.0041 14.6657C25.8628 14.289 23.96 14.4019 23.8518 14.4062C23.5048 13.86 22.3446 13.7342 21.0189 13.8405C21.1916 13.6459 21.2689 13.439 21.104 13.2535C20.8762 12.9972 20.4259 12.9214 19.9342 12.8962C19.4949 12.9303 19.0564 12.9612 18.6241 13.0153C18.6202 13.0084 18.6242 13.0009 18.6199 12.994C18.6085 12.9756 18.5865 12.9643 18.5731 12.9472C18.1876 12.995 17.8453 13.0441 17.6543 13.0663C16.412 13.2111 15.1706 13.3878 13.9452 13.6193C13.5052 13.4677 12.7717 13.4933 11.9503 13.6065C11.9532 13.5964 11.9652 13.5868 11.9673 13.5767C11.9216 13.5917 11.8768 13.6084 11.8312 13.6235C11.2974 13.7016 10.7798 13.8163 10.2446 13.9383C10.41 13.7553 10.5161 13.5882 10.453 13.4747C10.3944 13.3691 10.2902 13.3051 10.1638 13.2662C9.92787 13.3201 9.69484 13.3726 9.44069 13.4491C9.59512 13.3764 9.77328 13.3166 9.94261 13.2492C9.1979 13.198 7.89773 13.7701 6.92684 14.3126C6.28406 14.0072 5.37339 14.8289 5.07654 15.5972C5.03118 15.6523 5.00331 15.7011 5.0255 15.7503C4.9747 15.9348 4.94979 16.1115 4.99572 16.2607C5.0778 16.5275 5.30063 16.6628 5.59122 16.7074C5.50306 16.8464 5.44541 16.9768 5.47637 17.0774C5.54481 17.2999 5.92673 17.3814 6.41641 17.3837C6.31789 17.5374 6.27373 17.7023 6.36962 17.8941C6.59488 18.3446 8.31394 17.7684 9.90858 17.0519C10.3176 16.9669 10.7313 16.8725 11.1464 16.7712C12.1295 16.975 13.5317 16.7578 14.9576 16.3798C14.9655 16.3898 14.9658 16.4003 14.9788 16.4096C16.348 17.3876 22.5654 16.3159 24.2261 15.963C24.3271 15.9415 25.4638 15.7776 26.2763 15.4823ZM26.8335 15.2229C27.0547 15.0719 27.1602 14.8951 27.0462 14.6997C27.0442 14.6962 27.0397 14.6946 27.0377 14.6912C27.8984 14.7738 29.3399 14.7692 30.717 14.721C30.7158 14.7195 30.7139 14.7182 30.7127 14.7167C30.7682 14.7169 30.8295 14.7128 30.8871 14.7124C31.185 14.701 31.4583 14.6898 31.7293 14.6742C32.0568 14.6453 32.372 14.6043 32.6226 14.5253C32.0821 14.3954 31.3456 14.2266 30.5213 14.0957C30.5236 14.0687 30.5208 14.0425 30.5256 14.0149C30.4547 14.0101 30.3839 14.0014 30.3129 13.9978C30.0768 13.986 29.6175 13.9555 29.1092 13.9383C29.6709 13.892 30.2391 13.849 30.5894 13.8235C30.6096 13.769 30.6145 13.7185 30.6447 13.6618C30.7416 13.4802 30.9664 13.3581 31.2359 13.262C29.9569 13.2012 28.6234 13.3133 27.4545 13.7384C27.2382 13.817 26.8684 13.9476 26.5996 14.0957C26.8141 14.0856 26.9974 14.0879 27.2206 14.0744C27.0276 14.1236 26.8565 14.1868 26.7101 14.2701C26.6639 14.2196 26.6244 14.1644 26.574 14.1169C26.3258 14.2598 26.1698 14.4157 26.3401 14.5551C26.3458 14.5597 26.3751 14.5634 26.3826 14.5678C26.3593 14.6025 26.3188 14.6273 26.3018 14.6657C26.1753 14.9504 26.4727 15.1154 26.8335 15.2229ZM26.5485 14.0999C26.2686 13.8413 25.9202 13.6349 25.5319 13.4619C24.9724 13.5957 23.997 13.9405 24.0772 13.9978C24.3121 14.1656 25.3648 14.154 26.5485 14.0999ZM31.6868 13.1429C31.7558 13.1308 31.8179 13.1179 31.891 13.1089C31.7166 13.0382 31.5464 12.9916 31.3635 12.9302C31.3453 12.9566 31.1751 12.9182 31.0913 12.9217C30.8406 12.9321 30.5893 12.9328 30.3384 12.9387C30.8687 13.0335 31.221 13.0844 31.6868 13.1429ZM24.5961 12.4368C24.8806 12.4282 25.1665 12.431 25.4511 12.4368C26.2359 12.4528 27.0188 12.5293 27.8033 12.5899C27.7481 12.6047 27.6907 12.6185 27.6502 12.641C26.1625 12.7213 24.6616 12.8143 24.0389 12.5474C23.8649 12.4728 24.4069 12.4425 24.5961 12.4368Z" fill="#539dee" fill-rule="nonzero" opacity="1" stroke="#539dee" stroke-linecap="round" stroke-linejoin="round" stroke-width="1.36114"/>
</g>
<g id="Layer-3">
<path d="M6.4222 20.174C6.4222 17.8262 13.1456 15.923 21.4394 15.923C29.7332 15.923 36.4567 17.8262 36.4567 20.174C36.4567 22.5218 29.7332 24.4251 21.4394 24.4251C13.1456 24.4251 6.4222 22.5218 6.4222 20.174Z" fill="#5c3d25" fill-rule="nonzero" opacity="1" stroke="#5c3d25" stroke-linecap="butt" stroke-linejoin="round" stroke-width="1.36114"/>
</g>
<g id="Layer-5">
<path d="M38.4223 19.9441C38.3793 20.0075 38.3385 20.0698 38.2905 20.1227C38.2288 20.1907 38.1643 20.25 38.0905 20.3141C38.0733 20.3292 38.0455 20.3493 38.0267 20.3652C38.0909 21.0172 37.7019 21.6414 37.0484 21.8157C36.943 21.8438 36.6473 22.0442 36.2743 22.3856C36.154 22.4957 36.0141 22.6481 35.8829 22.7812C35.8905 22.8241 35.9042 22.8651 35.9085 22.9088C35.941 23.2409 35.8798 23.552 35.7596 23.8574C35.6064 24.2466 35.3483 24.6381 35.0237 25.0101C34.86 25.1977 34.6812 25.3696 34.5005 25.529C34.5176 25.6008 34.5365 25.6731 34.5431 25.7459C34.5497 25.819 34.5496 25.8841 34.5473 25.9501C34.5447 26.0245 34.5362 26.0958 34.5261 26.1756C34.5128 26.2802 34.4918 26.3998 34.4665 26.5371C34.4605 26.5697 34.3708 27.0238 34.3729 27.0135C34.335 27.1985 34.266 27.4127 34.2198 27.6005C34.2195 27.604 34.2199 27.6169 34.2198 27.6175C34.2033 27.7992 34.1953 27.8905 34.1773 28.0131C34.1769 28.0159 34.1562 28.155 34.1475 28.213C34.1303 28.3279 34.1135 28.4359 34.0922 28.5405C34.048 28.7582 33.9932 28.9369 33.9263 29.1063C34.9979 29.7031 36.303 30.0633 37.7205 30.0633C39.6236 30.0633 41.3362 29.4269 42.5313 28.4172C43.6041 27.5107 44.2582 26.3012 44.2582 24.9718C44.2582 23.709 43.6673 22.5563 42.6886 21.6668C41.6348 20.7089 40.1208 20.0876 38.4223 19.9441Z" fill="none" opacity="1" stroke="#007aff" stroke-linecap="butt" stroke-linejoin="round" stroke-width="2.76177"/>
</g>
<g id="Layer-2">
<path d="M3.74179 15.923C3.74179 13.1046 11.9037 10.8199 21.972 10.8199C32.0403 10.8199 40.2022 13.1046 40.2022 15.923C40.2022 18.7413 32.0403 21.026 21.972 21.026C11.9037 21.026 3.74179 18.7413 3.74179 15.923Z" fill="none" opacity="1" stroke="#007aff" stroke-linecap="butt" stroke-linejoin="round" stroke-width="1.36114"/>
<path d="M3.74179 15.923L6.4222 34.0844" fill="none" opacity="1" stroke="#007aff" stroke-linecap="butt" stroke-linejoin="round" stroke-width="1.36114"/>
<g opacity="1">
<g opacity="1">
<path d="M40.2329 15.923L35.4943 34.0844" fill="none" opacity="1" stroke="#007aff" stroke-linecap="butt" stroke-linejoin="round" stroke-width="1.36114"/>
</g>
</g>
<path d="M6.4222 34.0844C6.4222 32.3747 12.9302 30.9887 20.9582 30.9887C28.9863 30.9887 35.4943 32.3747 35.4943 34.0844C35.4943 35.7941 28.9863 37.1801 20.9582 37.1801C12.9302 37.1801 6.4222 35.7941 6.4222 34.0844Z" fill="#007aff" fill-rule="nonzero" opacity="1" stroke="#007aff" stroke-linecap="butt" stroke-linejoin="round" stroke-width="1.36114"/>
</g>
<g id="Layer-7"/>
<g id="Layer-8"/>
<g id="Layer-9"/>
<g id="Layer-1">
<path d="M31.1573 24.8202C30.8018 24.1091 29.6146 24.5509 29.1393 24.6781C27.9497 24.9962 23.2269 27.859 24.2506 29.4246C24.8959 30.4115 27.0054 29.0304 27.5476 28.7141C29.1726 27.7662 33.812 25.0341 33.0332 22.5179C32.1787 19.7572 23.4046 23.3556 24.5348 25.616C25.6372 27.8207 30.4663 24.6032 31.5552 23.6833C31.8658 23.4209 33.0055 22.5484 32.8058 21.9495C32.5235 21.1025 30.6065 21.7122 30.1909 21.8642C28.0552 22.6456 25.7407 24.0261 24.4211 25.9287C24.2947 26.111 23.794 26.8256 24.0232 27.2077C24.5875 28.1481 26.8529 27.2064 27.4624 26.9519C29.5229 26.0914 31.5161 24.8983 33.1753 23.399C33.3926 23.2027 35.5477 21.3775 34.9659 20.7273C33.8412 19.4702 28.7964 23.2366 28.0308 23.9391C27.2617 24.6448 26.1165 25.7906 26.3539 26.0992C26.6944 26.5418 28.2429 25.5339 28.4003 25.4455C30.5612 24.2318 32.7361 22.8276 34.568 21.1536C34.8313 20.9131 35.3527 20.671 35.2502 20.3294C35.0908 19.7983 34.1442 20.5451 33.6585 20.8126C31.956 21.7502 30.413 22.9784 29.0825 24.3938C28.861 24.6294 28.3661 24.9678 28.5708 25.2181C28.8874 25.605 30.3841 24.7744 30.532 24.7065C31.8127 24.1181 36.3141 21.782 36.4155 20.1588C36.4297 19.9319 36.0208 19.9737 35.9607 19.9883C35.2472 20.1613 32.092 22.8477 32.7774 23.2285C33.4342 23.5934 37.289 19.8708 37.3535 19.903C37.6899 20.0712 36.8729 20.4825 36.6145 20.7557C36.2314 21.1607 35.8719 21.5835 35.4776 21.9779C35.2927 22.1627 35.8444 21.6052 36.0176 21.4094C36.4627 20.9063 36.8013 20.3345 37.2966 19.8746C37.4758 19.7083 37.9337 19.2071 37.8935 19.4483C37.8414 19.7606 37.4835 20.1405 37.325 20.3862C37.1734 20.6213 36.6872 21.2692 36.9271 21.1252C37.4973 20.7831 38.2469 18.7661 38.7462 18.7661C38.7743 18.7661 37.9791 20.141 37.9503 20.1873C37.5394 20.8476 37.1636 21.5232 36.6997 22.1484C36.5134 22.3996 36.0198 23.1956 36.1597 22.9158C36.3982 22.4388 36.6599 21.9722 36.8987 21.4947C37.0928 21.1066 37.3108 20.4147 37.6661 20.1304C37.7576 20.0572 37.6291 20.3647 37.5808 20.4715C37.3663 20.9465 37.0949 21.3939 36.8703 21.8642C36.4107 22.8263 35.9418 23.8227 35.5628 24.8202C35.3578 25.3596 35.432 25.295 35.3354 25.7297C35.314 25.8263 35.2287 26.1105 35.2502 26.0139C35.5681 24.5834 36.3246 23.1613 36.9271 21.8358C36.985 21.7084 37.001 21.4037 37.1261 21.4663C37.5244 21.6655 36.7553 22.2765 36.586 22.6885C36.2097 23.6047 35.9311 24.5335 35.7334 25.5023C35.573 26.2881 35.6795 25.8314 35.506 26.5255C35.482 26.6215 35.386 26.9024 35.4207 26.8098C35.9534 25.3893 36.4563 23.9651 37.0692 22.5748C37.3447 21.9498 37.6369 21.3318 37.8935 20.6989C37.9604 20.5339 38.146 20.0395 38.1209 20.2157C37.895 21.7966 36.9136 23.5214 36.3302 24.9907C36.309 25.0442 35.1143 27.3214 35.506 27.3214C35.6768 27.3214 35.6351 27.0039 35.6765 26.8382C35.9424 25.7748 36.1709 24.4054 36.785 23.4843C36.8699 23.3569 36.677 23.7709 36.6145 23.9106C36.5052 24.1548 36.3926 24.398 36.3018 24.6496C36.1839 24.9766 36.0879 25.3112 35.9892 25.6444C35.8605 26.0786 35.7467 26.5172 35.6197 26.9519C35.553 27.1802 34.2898 30.6417 34.3691 30.7605C34.436 30.8609 34.7377 30 34.8523 29.6804C35.2202 28.6541 35.5291 27.6301 35.9892 26.6392C36.0535 26.5007 36.0716 26.193 36.2165 26.2413C36.6855 26.3976 36.0238 27.2113 35.9039 27.6909C35.6439 28.7308 35.5351 31.4561 34.767 32.3522C34.6789 32.455 34.8408 30.4447 34.9091 30.1921C35.0312 29.7401 35.1416 29.311 35.3354 28.8846" fill="none" opacity="1" stroke="#007aff" stroke-linecap="round" stroke-linejoin="round" stroke-width="1.36114"/>
<path d="M34.8807 32.2385C34.5785 33.0443 35.5038 30.1154 35.5344 29.9931C35.8592 28.694 36.074 27.4152 36.3018 26.0992C36.3228 25.9778 36.6407 24.2517 36.8134 24.2517C37.1033 24.2517 36.6941 24.8191 36.6429 25.1044C36.4598 26.1246 36.169 27.1038 35.7049 28.0319C35.5279 28.386 35.9842 27.291 36.1313 26.9234C36.2834 26.5432 37.8819 23.6144 36.785 23.2853C35.8353 23.0004 34.2934 24.5419 33.7153 25.0191C33.27 25.3868 32.8313 25.7632 32.4079 26.156C32.0445 26.4932 31.6936 26.8444 31.3563 27.2077C29.5797 29.1209 35.3294 26.02 34.5112 24.138C34.1435 23.2922 32.0152 24.5783 31.7542 24.7349C30.1906 25.673 28.9136 26.8283 27.6613 28.1456C27.3518 28.4713 26.3052 29.0908 26.7518 29.1404C27.7975 29.2566 32.6089 25.9363 33.3743 25.1044C33.5711 24.8905 34.4223 24.0096 33.8859 23.6264C32.245 22.4544 27.371 25.7722 26.2118 26.8382C25.7876 27.2283 25.4042 27.661 25.018 28.0888C24.7028 28.4379 24.0517 28.8157 24.2222 29.2541C24.4445 29.8258 26.398 29.0041 26.5528 28.9415C27.7155 28.4708 30.6531 27.2698 30.5036 25.5876C30.3755 24.147 28.6238 24.2241 27.6329 24.4222C26.1137 24.7261 19.4436 27.0887 19.1629 28.8846C18.9878 30.0052 21.4903 29.0935 21.522 29.0836C23.8438 28.358 26.2562 27.2173 28.2866 25.8718C28.6966 25.6001 30.1901 24.6603 29.6793 23.8538C28.9114 22.6412 25.6884 24.1207 24.8475 24.3654C22.2468 25.1223 17.0891 25.953 15.0701 27.7477C14.7908 27.9959 15.1468 28.1894 15.3543 28.2309C16.5956 28.4792 18.1662 27.9302 19.3335 27.634C21.9363 26.9736 24.5581 26.2655 27.036 25.2181C27.3242 25.0963 29.1397 24.5106 29.054 23.8254C28.9663 23.1238 26.7222 23.3568 26.5528 23.3706C24.0291 23.5771 21.349 24.2403 18.9356 24.9907C18.2702 25.1976 16.9811 25.6902 16.2638 25.9855C16.1384 26.0371 15.7666 26.2017 15.8943 26.156C18.9374 25.0692 21.9328 23.8948 25.0464 23.0011C25.7718 22.7929 27.6563 22.4839 27.7182 22.2053C27.8066 21.8072 26.9015 22.1052 26.496 22.1484C26.067 22.1942 25.643 22.2794 25.217 22.3474C23.045 22.694 20.9546 23.2203 18.8503 23.8538C18.0703 24.0886 17.6284 24.1775 16.9176 24.4791C16.8547 24.5058 16.6877 24.5589 16.747 24.5928C17.196 24.8493 19.2015 24.0365 19.5609 23.9391C21.404 23.4395 23.2314 22.9552 25.1033 22.5748C26.0757 22.3771 27.052 22.1979 28.0308 22.0347C28.2782 21.9935 29.0196 21.9153 28.7698 21.8926C25.6003 21.6045 20.6797 23.0049 17.685 23.9391C17.1471 24.1068 16.2299 23.961 16.0933 24.5075C16.0653 24.6193 16.321 24.4715 16.4344 24.4507C16.7853 24.3862 17.1362 24.3217 17.486 24.2517C18.5865 24.0316 19.6873 23.8122 20.783 23.5696C23.3644 22.998 25.8908 22.2335 28.4572 21.6084C28.8236 21.5191 29.2639 21.6073 29.5656 21.381C29.8158 21.1934 28.9394 21.3573 28.6277 21.381C28.1436 21.4178 27.6607 21.4695 27.1781 21.5231C25.9237 21.6625 24.5674 21.8404 23.3411 22.0916C20.1276 22.7498 15.7178 23.4106 12.91 25.2465C12.6077 25.4441 13.6544 25.2947 13.99 25.1612C14.4906 24.9622 14.974 24.7225 15.468 24.5075C17.1765 23.764 18.909 23.0902 20.6409 22.4042C21.04 22.2462 21.4386 22.0866 21.8347 21.9211C22.1045 21.8083 22.9222 21.5307 22.6305 21.5516C20.0819 21.7336 17.1148 23.4625 14.928 24.6212C14.0103 25.1074 13.14 25.6034 12.2847 26.1845C12.107 26.3051 11.5888 26.6412 11.8015 26.6108C13.5372 26.3628 16.5261 24.1547 18.225 23.3706C18.6842 23.1587 20.5318 22.6271 20.982 22.1769C21.0455 22.1133 20.8112 22.2331 20.7262 22.2621C20.4228 22.3657 20.1173 22.4634 19.8167 22.5748C19.2991 22.7665 17.1082 23.6304 16.7186 23.797C14.9054 24.5721 13.1763 25.4707 11.432 26.3834C11.0039 26.6074 10.6056 26.965 10.1245 27.0087C9.82364 27.0361 10.5603 26.5868 10.8067 26.4118C11.2395 26.1044 11.6704 25.7939 12.1141 25.5023C13.6871 24.4686 15.3391 23.6209 17.0312 22.8022C17.4166 22.6157 17.8088 22.4435 18.1966 22.2621C18.4192 22.158 19.0939 21.8886 18.8503 21.9211C16.8502 22.1877 14.586 23.5122 12.7678 24.337C12.0495 24.6628 11.3335 24.9945 10.6077 25.3034C10.4394 25.375 9.95554 25.6195 10.0961 25.5023C11.6266 24.2269 13.6199 23.3709 15.3827 22.4895C15.7277 22.317 16.192 22.2704 16.4059 21.9495C16.5888 21.6753 15.7716 22.1339 15.468 22.2621C15.0462 22.4404 14.6329 22.6381 14.2174 22.8306C12.6907 23.5377 10.4617 25.2577 8.76025 25.3886C8.52637 25.4066 9.08376 25.0456 9.27185 24.9054C9.58185 24.6745 9.89012 24.4407 10.2098 24.2233C10.601 23.9573 10.9967 23.6973 11.4036 23.4559C12.6664 22.7065 14.0431 22.1336 15.2975 21.381C15.4876 21.2669 14.8739 21.5164 14.6722 21.6084C14.3175 21.7702 13.9692 21.9457 13.6205 22.12C13.1923 22.3341 12.7689 22.5578 12.3415 22.7737C11.5729 23.162 9.41351 24.8002 8.47602 24.7065C8.43045 24.7019 9.32295 23.9786 10.0961 23.4559C10.5991 23.1158 11.7395 22.3924 12.2562 22.0916C12.5163 21.9402 12.7842 21.8024 13.0521 21.6653C13.1917 21.5938 13.6352 21.4663 13.4784 21.4663C11.7158 21.4663 8.11737 24.8726 6.77066 24.5359C6.76102 24.5335 7.03782 24.2006 8.0781 23.4843C9.34021 22.6153 8.73542 23.0293 10.0393 22.2337C10.4183 22.0024 11.4618 21.8087 11.1478 21.4947C10.8413 21.1883 7.70456 23.4356 7.08331 23.2285C6.98171 23.1946 7.21873 22.9857 8.16337 22.2905C8.30481 22.1865 9.5032 21.3206 9.69819 21.1821C9.8406 21.0809 10.2697 20.8603 10.0961 20.841C8.61279 20.6762 7.12156 23.0812 5.63375 22.9158C5.29359 22.8781 6.06009 22.3758 6.3159 22.1484C6.80684 21.712 7.34325 21.2914 7.79388 20.8126C7.83174 20.7723 7.89661 20.7229 7.87914 20.6705C7.73614 20.2414 5.7007 21.5901 5.46322 21.3526C5.19291 21.0823 6.5717 20.0892 6.5717 19.7894C6.5717 19.4986 5.53578 19.9577 5.43479 19.7894C5.34725 19.6435 5.62667 19.3524 5.52006 19.1925C5.31398 18.8834 4.71559 19.4378 5.09372 18.9651C5.27783 18.735 5.01816 18.7847 4.92319 18.9367C3.37821 21.4086 6.14536 20.6805 6.14536 19.8178C6.14536 19.8041 4.61772 20.4787 5.20741 21.0684C5.49012 21.3511 7.82532 20.4086 7.96441 20.1304C8.03915 19.9809 7.08333 20.1502 7.05489 20.1588C6.63812 20.2857 6.03733 20.6984 6.48643 21.1821C7.00599 21.7416 9.40499 21.0519 9.24343 20.2441C9.14794 19.7667 6.52326 20.4588 6.62855 20.5852C7.68564 21.8537 10.6315 21.4348 12.0289 21.381C12.4307 21.3656 13.3047 21.4551 13.1942 21.0684C13.1742 20.9984 9.49079 20.0245 9.64135 21.1536C9.78249 22.2122 12.593 21.7386 13.1942 21.6653C13.45 21.6341 14.1754 21.5259 13.9332 21.4379C13.4747 21.2712 10.1048 21.0887 10.0677 21.6084C9.94931 23.2657 15.6143 22.3427 16.3491 22.2621C16.9972 22.1911 17.3204 22.2053 17.9408 22.2053C18.2256 22.2053 18.9714 22.3709 18.7934 22.1484C18.5557 21.8513 17.7099 21.9432 17.4292 21.9495C16.8303 21.9628 16.795 21.9813 16.207 22.0347C15.2244 22.1241 18.3684 22.7712 18.7934 21.9211C18.9091 21.6898 18.2844 21.7959 18.026 21.8074C17.6791 21.8228 14.7836 22.1039 14.7859 22.12C14.924 23.0869 20.0854 22.5512 20.7546 22.4611C21.1192 22.412 21.7742 22.5966 21.8347 22.2337C21.9074 21.7974 20.9696 22.0063 20.5272 22.0063C18.8828 22.0063 17.5293 22.6457 15.9512 22.9443C15.8581 22.9619 15.7195 23.0231 15.667 22.9443C15.5278 22.7356 16.1566 22.8299 16.4059 22.8022C16.9363 22.7432 17.4719 22.723 17.9976 22.6316C18.9491 22.4661 19.8445 22.1676 20.7546 21.8642C20.8995 21.8159 20.4783 21.9992 20.3567 22.0916C20.0324 22.3381 19.5162 22.787 19.5324 23.2569C19.5604 24.068 20.9964 23.9552 21.4083 23.9391C24.5274 23.8167 27.6573 22.904 30.731 22.4042C31.6326 22.2576 33.7678 21.6197 34.7101 22.0632C34.8974 22.1513 34.7384 22.3878 34.6817 22.4611C33.9572 23.3987 32.8912 24.0525 32.2658 25.076C32.2454 25.1093 32.213 25.1592 32.2374 25.1897C32.535 25.5617 35.0262 23.5089 35.307 23.2569C35.5398 23.048 36.2747 22.4766 36.0744 22.7169C35.6575 23.2172 34.39 24.597 33.6585 24.4507C33.3038 24.3797 34.1542 23.9221 34.4259 23.6833C34.7106 23.4331 35.0926 23.0656 35.4207 22.859C35.5182 22.7976 35.7714 22.6873 35.7618 22.8022C35.6004 24.7385 31.1826 26.9579 31.1005 28.6004C31.0857 28.8963 31.4461 28.7327 31.5268 28.6857C32.7829 27.9529 33.744 26.7416 34.6249 25.616C34.672 25.5558 34.7844 25.4782 34.7386 25.417C34.6281 25.2698 33.9678 26.1498 33.5448 26.6961C32.5869 27.9334 32.8898 27.5307 32.0668 28.9415C31.8776 29.2659 31.5429 29.7559 31.4131 30.1636C31.3844 30.2539 31.3232 30.4778 31.4131 30.4479C32.1533 30.2011 34.3602 26.3177 34.0564 26.0139C34.0185 25.976 33.9749 26.0847 33.9427 26.1276C33.7096 26.4385 33.1183 27.3237 32.9764 27.5772C32.7938 27.9032 31.3763 30.7196 31.4984 30.9026C32.1962 31.9493 34.7939 28.048 34.9659 27.6056C35.0084 27.4964 34.9979 27.2645 34.8807 27.2645C34.23 27.2645 31.9594 31.1102 31.7542 31.7553C31.6545 32.0687 32.4294 31.7092 32.7206 31.5563C33.3622 31.2195 33.9892 30.6903 34.4543 30.1352C34.8175 29.7018 35.0495 29.1337 35.0228 29.1404C34.5952 29.2473 33.2291 31.7807 33.2322 31.7837C33.4562 32.0077 34.5635 30.3408 34.568 30.3342C34.7135 30.1185 35.1387 29.464 34.9944 29.6804C34.4588 30.4838 33.9518 31.3063 33.488 32.1532C33.3923 32.3279 33.054 32.7823 33.2322 32.6932C34.6098 32.0044 35.0371 29.3191 34.4543 28.0888C34.323 27.8116 33.5376 27.2651 33.6301 26.895C33.7595 26.3775 35.1684 25.0013 35.7334 25.1897C35.7736 25.2031 35.7902 25.261 35.7902 25.3034C35.7902 26.517 33.0901 27.1058 33.0901 28.3162C33.0901 28.5347 35.1548 26.2193 34.6817 26.2981C33.3671 26.5172 31.6958 28.4641 30.731 29.1688C29.4407 30.1113 27.6115 31.3919 26.0412 31.8406C25.7446 31.9253 26.4532 31.3812 26.6665 31.1584C26.9121 30.9019 27.1664 30.6536 27.4055 30.391C27.8812 29.8687 28.4345 29.1896 28.8551 28.6288C29.2778 28.0651 29.6971 27.3498 29.6509 27.3498C28.6265 27.3498 26.572 29.3947 25.8138 29.9362C25.4867 30.1699 25.1407 30.3772 24.8191 30.6184C24.7226 30.6907 24.4651 30.8041 24.5633 30.8742C24.7084 30.9779 28.5851 29.2659 28.9403 29.112C29.9446 28.6768 30.0188 28.6582 30.8731 28.1456C31.0827 28.0198 31.6886 27.8286 31.47 27.7193C31.2882 27.6284 29.8121 28.7651 29.1961 29.2541C28.6802 29.6637 28.1883 30.1026 27.6897 30.5331C27.3193 30.853 26.491 31.0531 26.6097 31.5279C26.7181 31.9615 27.4666 31.2562 27.8603 31.0447C29.1231 30.3665 30.1696 29.533 31.2994 28.6857C31.6809 28.3996 30.683 29.4136 30.3615 29.7657C29.8848 30.2878 29.3094 30.6188 28.8267 31.1016C28.8066 31.1217 28.8836 31.1036 28.9119 31.1016C29.4214 31.0652 29.8616 30.8391 30.3046 30.59C30.9101 30.2494 31.4205 29.8254 31.9816 29.4246C32.3094 29.1905 31.3762 29.9563 31.072 30.2205C30.7372 30.5112 29.8686 31.0136 29.7078 31.4426C29.5706 31.8084 30.4439 31.1731 30.7878 30.9879C31.1272 30.8051 31.6415 30.5963 31.9531 30.3626C32.0441 30.2944 31.7258 30.3626 31.6121 30.3626C31.1623 30.3626 30.7616 30.3515 30.3046 30.4194C29.3783 30.5571 28.4666 30.7791 27.5476 30.9595C25.6697 31.328 23.8356 31.5848 21.9199 31.5848C21.3988 31.5848 20.8777 31.5991 20.3567 31.6132C20.1758 31.6181 19.7269 31.7135 19.8167 31.5563C21.1681 29.1913 26.4961 28.9982 28.315 27.1792C28.4697 27.0246 27.8705 27.1723 27.6613 27.2361C27.2858 27.3507 26.9203 27.4957 26.5528 27.634C24.9342 28.2432 23.3035 28.8908 21.7494 29.652C21.342 29.8516 20.9534 30.0876 20.5557 30.3057C20.3135 30.4386 19.5795 30.6562 19.8451 30.7321C20.2236 30.8402 24.8964 28.8829 25.6433 28.6857C26.7053 28.4051 26.9654 28.3862 27.9455 28.2025C28.1063 28.1723 28.5814 28.0585 28.4287 28.1172C25.8673 29.1024 23.2632 29.9308 20.7262 30.9879C20.4679 31.0955 21.211 30.7069 21.4652 30.59C21.7353 30.4657 22.0154 30.3643 22.2894 30.2489C23.0781 29.9168 23.8611 29.5935 24.7054 29.4246C24.9577 29.3742 25.6272 29.1335 25.4728 29.3394C25.0155 29.9491 21.352 30.4163 21.2378 31.1016C21.2042 31.3033 21.6445 31.0348 21.8347 30.9595C22.1701 30.8266 22.4972 30.6737 22.8295 30.5331C23.2362 30.361 23.6445 30.1927 24.0516 30.0215C25.2903 29.5007 26.7273 29.0264 27.6613 28.0035C27.7128 27.9471 27.829 27.8586 27.775 27.8045C27.5202 27.5497 26.2009 28.4056 25.4728 28.7993C24.9394 29.0878 24.4039 29.3732 23.8811 29.6804C23.3235 30.0081 22.7627 30.3332 22.2326 30.7037C21.9195 30.9224 21.1667 31.2579 21.4368 31.5279C21.9894 32.0806 26.7956 28.0125 25.8138 27.2645C25.1358 26.7479 23.0298 27.7641 22.5168 27.9467C20.9225 28.5141 19.2494 29.0704 17.7987 29.9647C17.3934 30.2145 16.5173 30.6593 16.8323 31.0163C17.2573 31.498 22.328 29.2877 23.0284 28.9415C23.0397 28.9359 24.9891 28.0673 24.7054 27.5772C24.3283 26.9258 22.2202 27.6687 21.8915 27.7761C20.3503 28.28 18.8576 29.0485 17.486 29.9078C16.8792 30.288 15.4008 31.3309 16.1217 31.4711C17.9188 31.8205 20.8649 30.0311 22.3747 29.1973C22.6538 29.0431 23.9827 28.4774 23.5685 27.833C22.4111 26.0326 16.9435 28.1328 15.6385 28.8562C15.2527 29.0701 13.4267 30.0542 13.7342 30.8742C13.9601 31.4764 15.8758 30.7217 16.008 30.6752C17.093 30.2937 22.9733 27.7899 22.801 26.4118C22.6883 25.5101 20.6011 26.2005 20.3851 26.2697C18.1663 26.9814 15.5562 28.3386 13.99 30.1068C13.6692 30.469 13.0454 31.1382 13.4216 31.4426C14.1524 32.0342 19.5738 29.0997 20.3851 28.6004C20.6784 28.4199 22.4412 27.4579 22.0905 26.7245C21.7487 26.0098 19.339 27.1448 19.1914 27.2077C17.4659 27.9429 15.728 28.8715 14.3027 30.1068C14.2494 30.1529 13.5356 30.7347 13.9332 31.0163C15.1481 31.8769 18.0886 29.9172 19.0777 29.3109C19.1519 29.2655 20.6603 28.3639 20.243 27.9467C19.6073 27.3109 16.5559 29.3192 16.0649 29.652C15.6727 29.9178 15.3032 30.2156 14.928 30.5047C14.6992 30.6809 14.0003 30.9818 14.2742 31.0732C15.5258 31.4903 18.0832 29.6006 19.1629 29.0836C19.2897 29.0229 20.6591 28.5221 20.6978 28.174C20.7218 27.9582 19.9785 28.0435 19.1061 28.4014C17.7079 28.975 16.4074 29.7852 15.0985 30.5331C14.7669 30.7226 14.3156 31.4194 14.1037 31.1016C14.0301 30.9912 15.2604 30.087 15.8659 29.5099C16.3809 29.0191 19.5053 25.7488 19.0493 25.0191C18.6567 24.3911 16.6984 25.5554 16.4912 25.6728C15.206 26.4012 10.1994 30.2003 10.0393 31.6416C10.0037 31.9618 10.6284 31.3721 10.8919 31.1868C11.2795 30.9144 11.6471 30.6147 12.0289 30.3342C13.5564 29.2115 15.2701 28.087 16.2923 26.4403C16.4995 26.1063 16.9099 25.5512 16.6049 25.3034C15.9019 24.7322 12.2851 28.9484 11.8015 29.5668C11.321 30.1811 10.6548 31.0009 10.7783 31.0163C12.4161 31.221 16.513 23.0792 12.4552 26.9234C12.0462 27.3109 11.6781 27.7405 11.3183 28.174C10.8911 28.6888 10.4958 29.2294 10.0961 29.7657C9.69867 30.299 8.47123 31.6276 8.22022 32.3806C8.12715 32.6598 8.73125 32.0836 8.9592 31.8974C9.32375 31.5997 9.68097 31.2931 10.0393 30.9879C10.5257 30.5735 14.0774 27.4605 13.7626 26.6961C13.6153 26.3382 12.9968 26.8964 12.6826 27.1224C12.1188 27.5279 8.65006 30.6367 9.72662 31.4142C10.2516 31.7934 12.7741 29.6029 13.1942 29.2257C13.549 28.9071 14.3687 27.7316 14.1321 28.1456C13.88 28.5869 11.6915 31.2742 12.0857 31.4995C12.7077 31.8549 13.8479 30.7297 14.2174 30.391C14.4595 30.1691 15.0839 29.603 14.7574 29.5668C13.8028 29.4607 12.9703 31.2715 12.0289 31.4426C11.9509 31.4568 11.7516 30.1101 11.7446 30.0784C11.6013 29.4256 11.4539 28.8706 11.0625 28.3162C10.0527 26.8856 8.03141 26.4863 7.28227 24.7633C7.23316 24.6504 7.18504 24.5369 7.14015 24.4222C6.86041 23.7074 6.757 22.0916 5.83271 22.0916C5.75625 22.0916 5.22234 21.9765 5.20741 22.0063C5.03976 22.3416 6.01238 23.4466 6.03167 23.9675C6.12654 26.5289 6.77834 28.9138 7.11173 31.4142C7.14527 31.6658 7.21068 33.9987 7.79388 33.9154C8.22452 33.8539 8.85286 29.1458 8.93078 28.6004C8.93254 28.5881 9.44273 26.2413 9.24343 26.2413C8.36937 26.2413 7.75602 30.3804 7.73703 30.9595C7.72337 31.3762 7.83424 32.3393 8.19179 32.1248C9.1148 31.571 8.93389 26.2051 8.22022 25.9855C7.87281 25.8786 7.52882 27.5585 7.50965 27.634C7.32301 28.3696 6.54479 30.9443 7.68018 31.3858C8.29869 31.6263 8.35103 30.3865 8.33391 30.1068C8.26067 28.9107 7.87389 27.6947 7.62334 26.5255C7.60838 26.4557 7.3721 25.2892 7.25384 25.3602C6.88896 25.5791 7.51074 29.7275 8.16337 29.5099C8.9444 29.2496 7.655 26.6175 8.53286 26.2413C9.38111 25.8778 8.88116 29.6689 9.44239 29.8794C10.2479 30.1815 11.5173 27.3215 11.4036 27.1508C11.2718 26.9531 10.9274 27.2772 10.7498 27.4351C10.2517 27.8778 9.10975 28.9826 9.15816 29.7089C9.18309 30.0828 9.89396 29.5127 10.2098 29.3109C10.615 29.0521 12.4701 27.7341 11.7446 27.0087C11.12 26.384 9.31413 28.3515 9.52766 29.0836C9.76872 29.9101 11.3037 29.0421 11.4604 28.572C11.6042 28.1404 10.6793 29.0521 10.3519 29.3678C9.74913 29.9491 9.84701 30.0522 10.5225 30.2773" fill="none" opacity="1" stroke="#007aff" stroke-linecap="round" stroke-linejoin="round" stroke-width="1.36114"/>
</g>
</svg>
