<?xml version="1.0" encoding="UTF-8" standalone="no"?>
<!DOCTYPE svg PUBLIC "-//W3C//DTD SVG 1.1//EN" "http://www.w3.org/Graphics/SVG/1.1/DTD/svg11.dtd">
<!-- Created with Vectornator (http://vectornator.io/) -->
<svg height="48.0px" stroke-miterlimit="10" style="fill-rule:nonzero;clip-rule:evenodd;stroke-linecap:round;stroke-linejoin:round;" version="1.1" viewBox="0 0 48 48" width="48.0px" xml:space="preserve" xmlns="http://www.w3.org/2000/svg" xmlns:xlink="http://www.w3.org/1999/xlink">
<defs/>
<g id="Layer-4">
<path d="M24.1674 22.7669C21.96 22.5216 19.4792 22.9219 17.5552 24.0442" fill="#539dee" fill-rule="nonzero" opacity="1" stroke="#539dee" stroke-linecap="round" stroke-linejoin="round" stroke-width="1.37753"/>
<path d="M16.8039 21.5285C15.0841 21.6001 12.1404 22.0357 10.1272 22.8371C10.2034 22.8424 10.2883 22.8351 10.3511 22.8544C11.1519 22.6715 11.8249 22.618 12.0687 22.8414C12.174 22.938 12.201 23.0529 12.1763 23.1686C13.3642 22.7795 14.5721 22.4571 15.788 22.2775C16.3163 22.1995 18.3327 21.8571 18.8616 22.5315C19.3002 22.4771 19.7789 22.4562 20.2391 22.4798C22.348 22.3161 24.4485 22.4035 25.9042 23.0524C25.9232 23.0479 25.9509 23.0349 25.9688 23.0309C27.3396 22.7236 28.7368 22.572 30.1402 22.5401C30.3496 22.5354 30.5592 22.5278 30.7687 22.5229C30.2166 22.4242 29.7547 22.3215 29.8044 22.2388C29.8107 22.2282 29.8231 22.2229 29.8302 22.2129C29.8239 22.212 29.811 22.2096 29.8044 22.2086C29.8135 22.1996 29.821 22.1915 29.8259 22.1785C29.7441 22.1789 29.6563 22.1856 29.5719 22.1871C29.5261 22.181 29.4892 22.176 29.4385 22.1699C29.5575 22.1491 29.6788 22.1299 29.8001 22.1139C29.6018 21.7795 27.0713 21.7547 26.9847 21.7523C26.396 21.7362 25.8083 21.7553 25.2198 21.7609C25.2372 21.772 25.2897 21.7781 25.293 21.7911C25.3099 21.8587 24.0537 21.7944 24.0188 21.7911C23.9076 21.7807 23.7977 21.787 23.6873 21.7782C22.7576 21.809 21.8265 21.8507 20.8978 21.903C20.356 21.9335 19.0572 22.2225 18.4957 21.9417C18.012 21.6999 19.5706 21.8303 20.11 21.7911C20.2546 21.7806 21.173 21.737 21.9395 21.7007C21.7672 21.6981 21.5972 21.6792 21.423 21.6792C20.5357 21.6792 19.6449 21.6827 18.754 21.7093C18.7936 21.7221 18.8088 21.7355 18.7583 21.7523C18.5534 21.8206 18.3098 21.7934 18.0609 21.748C17.4023 21.7762 16.7435 21.8039 16.0893 21.8643C15.8073 21.8903 13.7309 22.4374 13.4591 22.1656C13.184 21.8905 14.2425 22.1595 14.6257 22.0924C15.4899 21.9412 16.3392 21.6769 17.2172 21.6017C17.276 21.5966 17.3347 21.6118 17.3937 21.6103C17.1843 21.5618 16.9828 21.521 16.8039 21.5285ZM17.3937 21.6103C17.6141 21.6613 17.8395 21.7077 18.0609 21.748C18.2924 21.7381 18.5223 21.7162 18.754 21.7093C18.651 21.6761 18.3319 21.6549 18.1944 21.6404C17.9295 21.6125 17.661 21.6035 17.3937 21.6103ZM21.9395 21.7007C22.5227 21.7095 23.1048 21.7317 23.6873 21.7782C24.1981 21.7612 24.7088 21.7658 25.2198 21.7609C24.9484 21.5883 23.3649 21.6332 21.9395 21.7007ZM29.8001 22.1139C29.8104 22.1314 29.842 22.1464 29.8388 22.1656C29.8376 22.173 29.8283 22.1722 29.8259 22.1785C29.837 22.1785 29.8493 22.1785 29.8603 22.1785C29.8501 22.1901 29.8392 22.2004 29.8302 22.2129C29.888 22.2218 30.038 22.2341 30.067 22.2388C30.5229 22.3117 31.0813 22.3884 31.6124 22.454C31.1736 22.3159 30.8225 22.2194 30.4975 22.1656C31.0976 22.1944 31.561 22.2861 31.7889 22.4755C32.1839 22.5263 32.5387 22.5767 32.9297 22.6563C33.2166 22.6494 33.5075 22.6624 33.8078 22.6865C32.4864 22.2165 30.5741 21.6507 29.9421 22.0967C29.8941 22.1015 29.8475 22.1077 29.8001 22.1139ZM33.8078 22.6865C34.3616 22.8834 34.8271 23.0599 35.0261 23.1428C35.0988 23.1731 35.5789 23.4061 35.9818 23.569C35.9703 23.5727 35.9587 23.5778 35.9473 23.5819C35.424 23.407 34.9077 23.2506 34.4449 23.1342C33.9895 22.913 33.4698 22.7663 32.9297 22.6563C32.7261 22.6613 32.5246 22.6722 32.3399 22.6951C32.4098 22.7234 32.4752 22.7517 32.5422 22.7812C32.44 22.7694 32.2851 22.7486 32.1333 22.7295C31.9638 22.7593 31.8153 22.8007 31.677 22.8501C32.087 22.8695 32.4908 22.9032 32.8823 22.9534C32.8932 22.9548 32.9127 22.9601 32.9254 22.962C33.0661 23.0373 33.1987 23.116 33.3042 23.1944C33.0586 23.4256 31.8306 23.3625 31.72 23.3666C31.6246 23.3702 31.1876 23.4062 31.0226 23.4183C30.9985 23.4833 30.9688 23.5502 30.9581 23.612C31.6906 23.661 32.4165 23.7644 33.1449 23.8574C33.2444 23.8701 33.4057 23.861 33.5539 23.8574C33.459 23.9736 33.2923 24.0617 33.0803 24.1286C33.1705 24.1503 33.2945 24.1758 33.3687 24.1931C33.0546 24.228 32.6246 24.2533 32.1763 24.2792C31.8808 24.3053 31.6077 24.3161 31.324 24.318C31.2631 24.3203 31.2134 24.3244 31.1518 24.3266C31.4541 24.7065 32.0697 24.9712 32.7704 25.1531C31.076 25.2607 28.6951 25.084 28.302 25.0197C28.2213 25.0065 27.6679 24.9675 27.2215 24.8346C27.0769 24.9332 26.8766 25.0176 26.6576 25.0972L35.5685 27.8092C35.6166 27.7783 35.672 27.7328 35.7278 27.7015C35.7643 27.6811 35.7897 27.6673 35.8225 27.6499C35.8801 27.6193 35.9354 27.594 35.9947 27.5681C36.045 27.5461 36.0931 27.5263 36.1496 27.5078C36.2665 27.4696 36.3856 27.4422 36.5371 27.4347C36.6652 27.4283 36.8048 27.4558 36.946 27.4906C37.0179 27.4634 37.0918 27.4201 37.1656 27.4002C37.275 27.3707 37.383 27.3489 37.497 27.3399C37.6535 27.2603 37.8099 27.1947 37.9663 27.1333C38.2454 26.7398 38.1621 26.9276 38.1514 27.0644C38.2248 27.0416 38.2984 27.0238 38.3924 27.0128C38.6697 26.8168 39.0702 26.3956 39.4213 25.9882C39.4112 25.9646 39.3885 25.931 39.3438 25.8849C39.3907 25.6633 39.3492 25.3864 39.1199 25.0197C38.9863 24.8058 38.7638 24.7261 38.5173 24.6925C38.1519 24.1124 37.3014 23.5404 36.4983 23.5087C36.2841 23.1188 35.0568 22.7865 33.8078 22.6865ZM39.4213 25.9882C39.4261 25.9994 39.4648 26.0308 39.46 26.0356C39.4323 26.0633 39.543 25.8825 39.6279 25.7429C39.5643 25.8214 39.494 25.9039 39.4213 25.9882ZM26.6576 25.0972L25.6632 24.7915C26.1218 24.7137 26.5042 24.5963 26.3821 24.2706C26.2391 23.8894 24.3134 24.0037 24.2039 24.008C23.8527 23.4552 22.6786 23.3279 21.3369 23.4355C21.5117 23.2386 21.5899 23.0292 21.423 22.8414C21.1924 22.5821 20.7367 22.5054 20.2391 22.4798C19.7946 22.5144 19.3508 22.5457 18.9133 22.6004C18.9093 22.5934 18.9133 22.5859 18.909 22.5789C18.8974 22.5602 18.8752 22.5488 18.8616 22.5315C18.4715 22.5799 18.1251 22.6295 17.9318 22.652C16.6745 22.7985 15.4182 22.9774 14.178 23.2117C13.7327 23.0583 12.9904 23.0842 12.1591 23.1987C12.162 23.1885 12.1741 23.1788 12.1763 23.1686C12.13 23.1838 12.0847 23.2006 12.0385 23.216C11.4983 23.295 10.9745 23.411 10.4328 23.5345C10.6003 23.3493 10.7076 23.1802 10.6438 23.0653C10.5844 22.9584 10.479 22.8937 10.3511 22.8544C10.1123 22.9089 9.87646 22.962 9.61924 23.0395C9.77553 22.9658 9.95583 22.9054 10.1272 22.8371C9.37353 22.7853 8.0577 23.3643 7.07511 23.9133C6.4246 23.6042 5.50296 24.4359 5.20253 25.2134C5.15663 25.2691 5.12843 25.3186 5.15088 25.3684C5.09947 25.5551 5.07426 25.7339 5.12074 25.8849C5.20381 26.1549 5.42932 26.2918 5.72341 26.3369C5.6342 26.4776 5.57585 26.6096 5.60718 26.7114C5.67645 26.9366 6.06297 27.0191 6.55854 27.0214C6.45884 27.177 6.41415 27.3439 6.51119 27.538C6.73916 27.9939 8.47893 27.4107 10.0928 26.6856C10.5067 26.5996 10.9254 26.5041 11.3455 26.4015C12.3405 26.6077 13.7595 26.388 15.2026 26.0055C15.2106 26.0155 15.2109 26.0262 15.2241 26.0356C16.6098 27.0254 22.902 25.9407 24.5827 25.5836C24.6849 25.5619 25.8353 25.3959 26.6576 25.0972ZM27.2215 24.8346C27.4454 24.6818 27.5521 24.5029 27.4368 24.3051C27.4347 24.3016 27.4302 24.3 27.4281 24.2965C28.2992 24.3801 29.7581 24.3755 31.1518 24.3266C31.1506 24.3251 31.1487 24.3238 31.1475 24.3223C31.2036 24.3225 31.2656 24.3184 31.324 24.318C31.6254 24.3064 31.902 24.2951 32.1763 24.2792C32.5077 24.2501 32.8268 24.2085 33.0803 24.1286C32.5333 23.9971 31.788 23.8263 30.9538 23.6938C30.956 23.6665 30.9532 23.6399 30.9581 23.612C30.8863 23.6072 30.8147 23.5984 30.7428 23.5948C30.5039 23.5828 30.039 23.5519 29.5246 23.5345C30.0931 23.4876 30.6681 23.4442 31.0226 23.4183C31.0431 23.3632 31.048 23.3121 31.0786 23.2547C31.1766 23.0709 31.4042 22.9474 31.677 22.8501C30.3825 22.7885 29.033 22.902 27.85 23.3322C27.6311 23.4118 27.2569 23.5439 26.9847 23.6938C27.2019 23.6836 27.3874 23.686 27.6132 23.6723C27.418 23.7221 27.2448 23.786 27.0967 23.8703C27.0499 23.8192 27.0098 23.7633 26.9589 23.7153C26.7077 23.8599 26.5498 24.0177 26.7222 24.1587C26.7279 24.1634 26.7576 24.1671 26.7652 24.1716C26.7416 24.2067 26.7006 24.2319 26.6834 24.2706C26.5553 24.5588 26.8564 24.7258 27.2215 24.8346ZM26.9331 23.6981C26.6498 23.4364 26.2972 23.2275 25.9042 23.0524C25.338 23.1878 24.3508 23.5368 24.432 23.5948C24.6697 23.7646 25.7352 23.7528 26.9331 23.6981ZM32.1333 22.7295C32.2031 22.7173 32.2659 22.7043 32.3399 22.6951C32.1634 22.6235 31.9912 22.5764 31.8061 22.5143C31.7876 22.541 31.6154 22.5021 31.5306 22.5057C31.2768 22.5162 31.0226 22.5169 30.7687 22.5229C31.3053 22.6188 31.6618 22.6703 32.1333 22.7295ZM24.9572 22.0149C25.2451 22.0062 25.5345 22.0091 25.8225 22.0149C26.6168 22.0311 27.409 22.1085 28.203 22.1699C28.1471 22.1849 28.0891 22.1988 28.048 22.2216C26.5424 22.3029 25.0235 22.397 24.3933 22.1269C24.2172 22.0514 24.7657 22.0207 24.9572 22.0149Z" fill="#539dee" fill-rule="nonzero" opacity="1" stroke="#539dee" stroke-linecap="round" stroke-linejoin="round" stroke-width="1.37753"/>
</g>
<g id="Layer-3">
<path d="M6.5644 29.8453C6.5644 27.4693 13.3688 25.5431 21.7625 25.5431C30.1562 25.5431 36.9606 27.4693 36.9606 29.8453C36.9606 32.2214 30.1562 34.1476 21.7625 34.1476C13.3688 34.1476 6.5644 32.2214 6.5644 29.8453Z" fill="#5c3d25" fill-rule="nonzero" opacity="1" stroke="#5c3d25" stroke-linecap="butt" stroke-linejoin="round" stroke-width="1.37753"/>
</g>
<g id="Layer-5">
<path d="M38.9499 29.6126C38.9063 29.6768 38.8651 29.7398 38.8165 29.7934C38.7541 29.8622 38.6888 29.9223 38.6141 29.9871C38.5966 30.0023 38.5685 30.0227 38.5496 30.0388C38.6144 30.6987 38.2208 31.3304 37.5595 31.5067C37.4527 31.5352 37.1535 31.7381 36.776 32.0836C36.6543 32.195 36.5126 32.3492 36.3799 32.4839C36.3876 32.5274 36.4014 32.5688 36.4058 32.6131C36.4387 32.9491 36.3768 33.264 36.2551 33.573C36.1001 33.967 35.8388 34.3632 35.5104 34.7396C35.3447 34.9295 35.1637 35.1035 34.9809 35.2648C34.9982 35.3374 35.0173 35.4106 35.0239 35.4844C35.0306 35.5583 35.0306 35.6242 35.0282 35.691C35.0256 35.7663 35.017 35.8384 35.0067 35.9191C34.9933 36.0251 34.9721 36.146 34.9465 36.285C34.9404 36.318 34.8496 36.7776 34.8517 36.7672C34.8133 36.9545 34.7435 37.1712 34.6968 37.3612C34.6964 37.3648 34.6968 37.3779 34.6968 37.3785C34.6801 37.5623 34.672 37.6548 34.6537 37.7788C34.6533 37.7817 34.6324 37.9225 34.6236 37.9811C34.6062 38.0974 34.5892 38.2067 34.5676 38.3126C34.5229 38.5329 34.4674 38.7137 34.3997 38.8851C35.4843 39.4892 36.8051 39.8537 38.2396 39.8537C40.1657 39.8537 41.8989 39.2096 43.1083 38.1878C44.1941 37.2704 44.8561 36.0463 44.8561 34.7009C44.8561 33.4229 44.258 32.2563 43.2676 31.3561C42.201 30.3867 40.6688 29.7579 38.9499 29.6126Z" fill="none" opacity="1" stroke="#007aff" stroke-linecap="butt" stroke-linejoin="round" stroke-width="2.79503"/>
</g>
<g id="Layer-2">
<path d="M3.85171 25.5431C3.85171 22.6908 12.1119 20.3785 22.3015 20.3785C32.491 20.3785 40.7512 22.6908 40.7512 25.5431C40.7512 28.3954 32.491 30.7076 22.3015 30.7076C12.1119 30.7076 3.85171 28.3954 3.85171 25.5431Z" fill="none" opacity="1" stroke="#007aff" stroke-linecap="butt" stroke-linejoin="round" stroke-width="1.37753"/>
<path d="M3.85171 25.5431L6.5644 43.9233" fill="none" opacity="1" stroke="#007aff" stroke-linecap="butt" stroke-linejoin="round" stroke-width="1.37753"/>
<g opacity="1">
<g opacity="1">
<path d="M40.7823 25.5431L35.9866 43.9233" fill="none" opacity="1" stroke="#007aff" stroke-linecap="butt" stroke-linejoin="round" stroke-width="1.37753"/>
</g>
</g>
<path d="M6.5644 43.9233C6.5644 42.193 13.1508 40.7903 21.2755 40.7903C29.4002 40.7903 35.9866 42.193 35.9866 43.9233C35.9866 45.6536 29.4002 47.0562 21.2755 47.0562C13.1508 47.0562 6.5644 45.6536 6.5644 43.9233Z" fill="#007aff" fill-rule="nonzero" opacity="1" stroke="#007aff" stroke-linecap="butt" stroke-linejoin="round" stroke-width="1.37753"/>
</g>
<g id="Layer-7">
<path d="M5.82863 12.2952C3.72138 17.4421 7.32751 18.5129 8.63015 22.6226C9.05535 23.964 9.27827 25.4935 9.48144 27.0048" fill="none" opacity="1" stroke="#94908d" stroke-linecap="round" stroke-linejoin="round" stroke-opacity="0.423108" stroke-width="1.81716"/>
<path d="M14.7585 2.67434C13.7122 3.80413 12.1652 8.45079 12.2618 9.57083C12.5155 12.515 16.4213 13.7006 17.6573 16.0333C19.6787 19.8486 17.1723 23.9929 16.2565 27.6278" fill="none" opacity="1" stroke="#94908d" stroke-linecap="round" stroke-linejoin="round" stroke-opacity="0.423108" stroke-width="1.81716"/>
<path d="M23.9545 27.336C22.1676 22.9559 27.3489 18.7405 27.722 14.6395C28.0637 10.8843 26.2068 8.06606 25.2318 4.69228" fill="none" opacity="1" stroke="#94908d" stroke-linecap="round" stroke-linejoin="round" stroke-opacity="0.423108" stroke-width="1.81716"/>
<path d="M32.5596 27.3392C32.6069 26.7129 32.7289 26.0672 32.7544 25.6004C32.8612 23.6429 32.5828 21.4294 33.4288 19.6447C34.4521 17.4861 37.508 17.1336 38.098 14.7662C38.9603 11.3061 37.6304 7.85269 37.3198 4.43884" fill="none" opacity="1" stroke="#94908d" stroke-linecap="round" stroke-linejoin="round" stroke-opacity="0.423108" stroke-width="1.81716"/>
<path d="M14.1747 3.85985C16.079 6.18115 16.7644 8.76714 15.7055 9.6358C14.6466 10.5045 12.2445 9.32688 10.3402 7.00558C8.43586 4.68428 7.75052 2.0983 8.8094 1.22963C9.86829 0.360965 12.2704 1.53855 14.1747 3.85985Z" fill="#e1e0d3" fill-opacity="0.923423" fill-rule="nonzero" opacity="0.602174" stroke="#696754" stroke-linecap="butt" stroke-linejoin="round" stroke-width="0.346606"/>
<path d="M20.7463 6.02979C21.1062 5.31005 22.5703 4.88788 23.1704 5.48794" fill="none" opacity="1" stroke="#060606" stroke-linecap="round" stroke-linejoin="round" stroke-width="0.346606"/>
<path d="M8.29056 13.5311C8.49091 14.1321 6.72653 15.1884 7.3601 15.1884" fill="none" opacity="1" stroke="#060606" stroke-linecap="round" stroke-linejoin="round" stroke-width="0.346606"/>
<path d="M4.77224 8.82058C4.77224 8.27008 2.73881 9.54751 3.28932 9.54751" fill="none" opacity="1" stroke="#060606" stroke-linecap="round" stroke-linejoin="round" stroke-width="0.346606"/>
<path d="M3.14393 9.46028C3.70656 9.74159 4.26157 10.0191 4.8304 10.3035" fill="none" opacity="1" stroke="#060606" stroke-linecap="round" stroke-linejoin="round" stroke-width="0.346606"/>
<path d="M3.75455 9.40212C3.75455 9.05959 4.99139 9.99147 4.68501 9.83828" fill="none" opacity="1" stroke="#060606" stroke-linecap="round" stroke-linejoin="round" stroke-width="0.346606"/>
<path d="M4.36517 9.89643L4.30701 9.89643L4.36517 9.89643L4.42332 9.89643L4.48147 9.92551L4.59778 9.98366L4.65594 10.0127L4.74317 10.0127L4.80132 9.95459L4.80132 9.89643L4.74317 9.8092L4.65594 9.75105L4.53963 9.63474L4.42332 9.57659L4.30701 9.51843L4.16163 9.48935L4.04532 9.48935L3.98717 9.51843L3.95809 9.57659L4.01624 9.66382L4.16163 9.69289L4.33609 9.72197L4.51055 9.72197L4.68501 9.72197L4.80132 9.66382L4.88855 9.60566L4.88855 9.51843L4.77224 9.4312L4.59778 9.28582L4.39424 9.22766L4.21978 9.16951L4.10347 9.16951L4.01624 9.22766L4.01624 9.28582L4.04532 9.37305L4.13255 9.4312" fill="none" opacity="1" stroke="#060606" stroke-linecap="round" stroke-linejoin="round" stroke-width="0.346606"/>
<path d="M4.65594 9.16951C4.48243 8.8225 2.799 10.1 5.06301 10.1" fill="none" opacity="1" stroke="#060606" stroke-linecap="round" stroke-linejoin="round" stroke-width="0.346606"/>
<path d="M3.72547 9.51843C3.88835 9.19268 4.34989 9.0532 4.71409 9.0532" fill="none" opacity="1" stroke="#060606" stroke-linecap="round" stroke-linejoin="round" stroke-width="0.346606"/>
<path d="M3.52193 9.63474C3.54132 9.60566 3.5607 9.57659 3.58009 9.54751" fill="none" opacity="1" stroke="#060606" stroke-linecap="round" stroke-linejoin="round" stroke-width="0.346606"/>
<path d="M3.37655 9.51843L3.52193 9.37305" fill="none" opacity="1" stroke="#060606" stroke-linecap="round" stroke-linejoin="round" stroke-width="0.346606"/>
<path d="M3.63824 9.4312C4.00085 9.18946 4.58951 8.90782 5.03394 8.90782" fill="none" opacity="1" stroke="#060606" stroke-linecap="round" stroke-linejoin="round" stroke-width="0.346606"/>
<path d="M3.98717 9.16951C4.31433 9.00593 4.6495 8.96758 5.00486 8.87874" fill="none" opacity="1" stroke="#060606" stroke-linecap="round" stroke-linejoin="round" stroke-width="0.346606"/>
</g>
<g id="Layer-8">
<path d="M4.57272 9.92168C4.57272 7.03356 8.81977 4.69228 14.0588 4.69228C19.2978 4.69228 23.5448 7.03356 23.5448 9.92168C23.5448 12.8098 19.2978 15.1511 14.0588 15.1511C8.81977 15.1511 4.57272 12.8098 4.57272 9.92168Z" fill="#f1da30" fill-rule="nonzero" opacity="1" stroke="#e3cd2d" stroke-linecap="butt" stroke-linejoin="round" stroke-width="0.346606"/>
<path d="M20.0149 9.03818C20.0149 8.55024 20.2636 8.15469 20.5705 8.15469C20.8773 8.15469 21.1261 8.55024 21.1261 9.03818C21.1261 9.52612 20.8773 9.92168 20.5705 9.92168C20.2636 9.92168 20.0149 9.52612 20.0149 9.03818Z" fill="#000000" fill-opacity="0.8" fill-rule="nonzero" opacity="1" stroke="#060606" stroke-linecap="butt" stroke-linejoin="round" stroke-opacity="0.887387" stroke-width="0.346606"/>
<g opacity="1">
<path d="M16.2217 4.61786C15.4264 4.61967 14.783 5.26599 14.7849 6.06138C14.802 8.66473 14.8613 11.2672 14.8794 13.8705C14.8811 14.6236 15.4929 15.2328 16.246 15.2311C16.999 15.2294 17.6082 14.6173 17.6065 13.8642C17.6128 11.2608 17.6599 8.65814 17.6653 6.05475C17.6634 5.25936 17.0171 4.61605 16.2217 4.61786Z" fill="#060606" fill-opacity="0.887387" stroke="none"/>
</g>
<g opacity="1">
<path d="M12.0764 4.52236C10.9526 4.47765 10.0055 5.35238 9.96076 6.47609C9.88927 8.67339 9.8771 10.8712 9.80687 13.0685C9.76454 14.1324 10.5927 15.0291 11.6566 15.0714C12.7205 15.1138 13.6172 14.2856 13.6595 13.2217C13.7641 11.0258 13.9268 8.83399 14.0301 6.63796C14.0748 5.51425 13.2001 4.56707 12.0764 4.52236Z" fill="#060606" fill-opacity="0.887387" stroke="none"/>
</g>
</g>
<g id="Layer-9">
<path d="M13.3697 4.19472C15.6256 6.17608 16.7216 8.6165 15.8178 9.64554C14.914 10.6746 12.3525 9.90258 10.0966 7.92122C7.84077 5.93986 6.74471 3.49944 7.64853 2.47039C8.55235 1.44135 11.1138 2.21335 13.3697 4.19472Z" fill="#e1e0d3" fill-opacity="0.923423" fill-rule="nonzero" opacity="0.602174" stroke="#696754" stroke-linecap="butt" stroke-linejoin="round" stroke-width="0.346606"/>
<path d="M19.4915 12.6461C19.7647 13.1925 19.5293 13.8415 20.5467 13.5872" fill="none" opacity="1" stroke="#060606" stroke-linecap="round" stroke-linejoin="round" stroke-width="0.346606"/>
<path d="M20.1474 6.28646C20.1474 4.0691 21.6031 4.54683 22.4004 4.54683" fill="none" opacity="1" stroke="#060606" stroke-linecap="round" stroke-linejoin="round" stroke-width="0.346606"/>
<path d="M22.4574 4.54683L22.4289 4.46127L22.4004 4.37572L22.3433 4.37572L22.2863 4.40424L22.2293 4.51831L22.1722 4.63239L22.1722 4.74646L22.1722 4.83201L22.2578 4.88905L22.3719 4.88905L22.4859 4.86053L22.5715 4.77498L22.6 4.68942L22.6285 4.60387L22.6 4.51831L22.543 4.46127L22.4574 4.43276L22.4004 4.46127L22.3433 4.51831L22.3148 4.60387L22.3148 4.6609L22.4004 4.71794L22.4859 4.6609L22.543 4.60387L22.5715 4.51831" fill="none" opacity="1" stroke="#060606" stroke-linecap="round" stroke-linejoin="round" stroke-width="0.346606"/>
<path d="M23.2274 5.40238L23.2274 5.31683L23.2274 5.25979L23.1704 5.25979L23.1419 5.34535L23.0848 5.45942L23.0563 5.54498L23.0563 5.63053L23.0563 5.71609L23.1419 5.71609L23.2845 5.68757L23.37 5.60201L23.3985 5.54498L23.3985 5.45942L23.3985 5.40238L23.3415 5.37387L23.2845 5.37387L23.1704 5.40238L23.1133 5.45942L23.0848 5.54498L23.1133 5.65905L23.1989 5.65905L23.2845 5.65905L23.3415 5.63053L23.37 5.54498" fill="none" opacity="1" stroke="#060606" stroke-linecap="round" stroke-linejoin="round" stroke-width="0.346606"/>
<path d="M8.52318 14.0254C9.13361 15.8567 8.21513 14.9817 7.41825 16.1771" fill="none" opacity="1" stroke="#060606" stroke-linecap="round" stroke-linejoin="round" stroke-width="0.346606"/>
</g>
<g id="Layer-1">
<path d="M31.5974 34.5474C31.2376 33.8278 30.0361 34.275 29.5551 34.4036C28.3511 34.7256 23.5715 37.6228 24.6075 39.2074C25.2605 40.2061 27.3955 38.8083 27.9442 38.4882C29.5888 37.5289 34.2841 34.7639 33.4959 32.2175C32.6311 29.4235 23.7514 33.0652 24.8952 35.3529C26.0108 37.5841 30.8981 34.3279 32.0001 33.3968C32.3144 33.1313 33.4678 32.2484 33.2658 31.6422C32.98 30.785 31.04 31.402 30.6194 31.5559C28.4579 32.3467 26.1155 33.7438 24.7801 35.6693C24.6521 35.8538 24.1454 36.577 24.3774 36.9637C24.9484 37.9155 27.2411 36.9624 27.8579 36.7048C29.9433 35.834 31.9606 34.6265 33.6397 33.1092C33.8596 32.9105 36.0406 31.0633 35.4519 30.4053C34.3136 29.133 29.2081 32.9448 28.4332 33.6557C27.6549 34.3699 26.4959 35.5295 26.7361 35.8419C27.0807 36.2898 28.6479 35.2697 28.8072 35.1803C30.9941 33.952 33.1952 32.5309 35.0492 30.8368C35.3156 30.5933 35.8433 30.3483 35.7395 30.0026C35.5783 29.4651 34.6202 30.2209 34.1287 30.4916C32.4058 31.4405 30.8441 32.6835 29.4976 34.116C29.2734 34.3544 28.7725 34.6969 28.9798 34.9501C29.3001 35.3417 30.8149 34.5012 30.9646 34.4324C32.2606 33.8369 36.8162 31.4727 36.9189 29.83C36.9333 29.6003 36.5195 29.6427 36.4587 29.6574C35.7365 29.8325 32.5433 32.5512 33.237 32.9366C33.9017 33.3059 37.803 29.5385 37.8682 29.5711C38.2086 29.7413 37.3818 30.1575 37.1203 30.434C36.7326 30.8439 36.3688 31.2718 35.9697 31.6709C35.7826 31.858 36.3409 31.2938 36.5162 31.0956C36.9666 30.5864 37.3094 30.0078 37.8106 29.5423C37.992 29.374 38.4554 28.8668 38.4147 29.1109C38.362 29.427 37.9998 29.8115 37.8394 30.0601C37.6859 30.298 37.1939 30.9537 37.4367 30.808C38.0138 30.4617 38.7724 28.4205 39.2776 28.4205C39.3061 28.4205 38.5014 29.8119 38.4722 29.8587C38.0564 30.527 37.676 31.2108 37.2066 31.8435C37.0179 32.0978 36.5185 32.9033 36.66 32.6202C36.9014 32.1374 37.1663 31.6652 37.4079 31.1819C37.6043 30.7891 37.825 30.0889 38.1846 29.8012C38.2772 29.7271 38.1471 30.0383 38.0983 30.1464C37.8812 30.6271 37.6065 31.0799 37.3792 31.5559C36.9141 32.5296 36.4395 33.538 36.056 34.5474C35.8485 35.0934 35.9236 35.028 35.8258 35.4679C35.8041 35.5656 35.7178 35.8533 35.7395 35.7556C36.0613 34.3078 36.8269 32.8686 37.4367 31.5271C37.4953 31.3982 37.5114 31.0899 37.638 31.1532C38.0412 31.3548 37.2628 31.9731 37.0915 32.3901C36.7107 33.3173 36.4286 34.2573 36.2286 35.2378C36.0662 36.0331 36.174 35.5709 35.9984 36.2733C35.9742 36.3704 35.877 36.6547 35.9121 36.561C36.4512 35.1234 36.9602 33.682 37.5805 32.275C37.8593 31.6425 38.155 31.0171 38.4147 30.3765C38.4824 30.2096 38.6703 29.7092 38.6448 29.8875C38.4162 31.4874 37.423 33.233 36.8326 34.72C36.8111 34.7742 35.6021 37.0788 35.9984 37.0788C36.1713 37.0788 36.1291 36.7574 36.171 36.5897C36.4401 35.5136 36.6714 34.1277 37.2929 33.1955C37.3788 33.0666 37.1835 33.4856 37.1203 33.627C37.0097 33.874 36.8957 34.1202 36.8039 34.3748C36.6845 34.7058 36.5874 35.0443 36.4874 35.3816C36.3572 35.8211 36.242 36.2649 36.1135 36.7048C36.046 36.9359 34.7676 40.439 34.8478 40.5593C34.9156 40.661 35.2209 39.7897 35.3368 39.4662C35.7092 38.4275 36.0219 37.3912 36.4874 36.3884C36.5525 36.2482 36.5709 35.9368 36.7176 35.9857C37.1921 36.1439 36.5225 36.9674 36.4011 37.4527C36.138 38.5051 36.0279 41.2633 35.2505 42.1701C35.1613 42.2742 35.3253 40.2397 35.3944 39.984C35.518 39.5266 35.6297 39.0923 35.8258 38.6608" fill="none" opacity="1" stroke="#007aff" stroke-linecap="round" stroke-linejoin="round" stroke-width="1.37753"/>
<path d="M35.3656 42.0551C35.0598 42.8706 35.9963 39.9064 36.0272 39.7827C36.3559 38.4679 36.5733 37.1737 36.8039 35.8419C36.8251 35.719 37.1468 33.9721 37.3216 33.9721C37.615 33.9721 37.2009 34.5464 37.149 34.8351C36.9637 35.8675 36.6694 36.8586 36.1998 37.7979C36.0206 38.1562 36.4825 37.048 36.6313 36.676C36.7852 36.2912 38.4029 33.3271 37.2929 32.9941C36.3317 32.7058 34.7713 34.2658 34.1862 34.7488C33.7355 35.1209 33.2915 35.5019 32.8631 35.8994C32.4952 36.2406 32.1401 36.596 31.7987 36.9637C30.0008 38.9 35.8198 35.7617 34.9917 33.8571C34.6195 33.0011 32.4656 34.3026 32.2015 34.4611C30.6191 35.4106 29.3266 36.5798 28.0593 37.9129C27.746 38.2425 26.6869 38.8695 27.1388 38.9197C28.1971 39.0373 33.0665 35.677 33.8411 34.8351C34.0402 34.6186 34.9017 33.7271 34.3588 33.3393C32.6982 32.1531 27.7655 35.511 26.5923 36.5897C26.163 36.9845 25.775 37.4225 25.3842 37.8554C25.0652 38.2088 24.4062 38.5911 24.5787 39.0348C24.8037 39.6133 26.7807 38.7818 26.9375 38.7184C28.1141 38.2421 31.0871 37.0266 30.9358 35.3241C30.8062 33.8661 29.0334 33.9442 28.0305 34.1447C26.493 34.4522 19.7426 36.8433 19.4586 38.6608C19.2814 39.7949 21.814 38.8722 21.8461 38.8622C24.1958 38.1279 26.6372 36.9734 28.6921 35.6117C29.1071 35.3368 30.6185 34.3856 30.1016 33.5694C29.3244 32.3422 26.0626 33.8395 25.2116 34.0872C22.5795 34.8532 17.3598 35.6939 15.3164 37.5102C15.0338 37.7614 15.394 37.9572 15.6041 37.9992C16.8603 38.2505 18.4499 37.6949 19.6312 37.3952C22.2654 36.7268 24.9187 36.0101 27.4265 34.9501C27.7181 34.8269 29.5555 34.2341 29.4688 33.5407C29.38 32.8306 27.1089 33.0664 26.9375 33.0804C24.3833 33.2894 21.6709 33.9606 19.2285 34.72C18.5551 34.9294 17.2504 35.4279 16.5246 35.7268C16.3976 35.7791 16.0213 35.9456 16.1506 35.8994C19.2303 34.7995 22.2618 33.611 25.4129 32.7065C26.147 32.4958 28.0542 32.183 28.1168 31.9011C28.2064 31.4981 27.2904 31.7998 26.8799 31.8435C26.4457 31.8898 26.0167 31.9761 25.5855 32.0449C23.3874 32.3956 21.2718 32.9283 19.1422 33.5694C18.3527 33.8071 17.9055 33.8971 17.1861 34.2023C17.1225 34.2293 16.9535 34.283 17.0136 34.3173C17.4679 34.5769 19.4976 33.7543 19.8613 33.6557C21.7267 33.1502 23.576 32.6601 25.4705 32.275C26.4546 32.075 27.4427 31.8936 28.4332 31.7285C28.6837 31.6867 29.434 31.6076 29.1811 31.5846C25.9734 31.293 20.9936 32.7103 17.9628 33.6557C17.4185 33.8255 16.4902 33.6779 16.352 34.231C16.3237 34.3442 16.5824 34.1946 16.6971 34.1735C17.0523 34.1083 17.4074 34.0429 17.7614 33.9721C18.8752 33.7494 19.9892 33.5273 21.0982 33.2818C23.7106 32.7033 26.2675 31.9297 28.8647 31.297C29.2356 31.2067 29.6812 31.2959 29.9866 31.0669C30.2397 30.877 29.3528 31.0429 29.0373 31.0669C28.5474 31.1041 28.0586 31.1564 27.5703 31.2107C26.3007 31.3518 24.9281 31.5318 23.687 31.786C20.4349 32.4521 15.9719 33.1209 13.1303 34.9789C12.8244 35.1789 13.8837 35.0276 14.2234 34.8926C14.73 34.6912 15.2192 34.4486 15.7191 34.231C17.4482 33.4785 19.2016 32.7966 20.9544 32.1024C21.3583 31.9424 21.7616 31.7809 22.1625 31.6134C22.4356 31.4993 23.2632 31.2184 22.9679 31.2395C20.3886 31.4237 17.3858 33.1734 15.1726 34.3461C14.2439 34.8382 13.3632 35.3401 12.4975 35.9282C12.3176 36.0503 11.7933 36.3904 12.0085 36.3596C13.7651 36.1087 16.79 33.8739 18.5093 33.0804C18.974 32.866 20.8439 32.3279 21.2995 31.8723C21.3639 31.808 21.1267 31.9292 21.0407 31.9586C20.7336 32.0634 20.4244 32.1623 20.1202 32.275C19.5964 32.469 17.3791 33.3433 16.9848 33.5119C15.1498 34.2963 13.3999 35.2058 11.6345 36.1295C11.2013 36.3562 10.7982 36.7181 10.3113 36.7623C10.0068 36.79 10.7524 36.3353 11.0017 36.1583C11.4397 35.8472 11.8759 35.5329 12.3249 35.2378C13.9168 34.1917 15.5887 33.3338 17.3012 32.5051C17.6912 32.3164 18.0881 32.1422 18.4806 31.9586C18.7059 31.8532 19.3887 31.5805 19.1422 31.6134C17.118 31.8833 14.8265 33.2238 12.9865 34.0584C12.2595 34.3882 11.5349 34.7239 10.8003 35.0364C10.6299 35.1089 10.1403 35.3563 10.2826 35.2378C11.8315 33.947 13.8488 33.0807 15.6328 32.1887C15.9819 32.0142 16.4519 31.9669 16.6684 31.6422C16.8534 31.3647 16.0264 31.8288 15.7191 31.9586C15.2923 32.139 14.874 32.3391 14.4535 32.5339C12.9084 33.2495 10.6525 34.9903 8.9306 35.1227C8.69391 35.1409 9.25801 34.7756 9.44837 34.6337C9.76211 34.4 10.0741 34.1634 10.3976 33.9434C10.7935 33.6742 11.194 33.411 11.6057 33.1667C12.8838 32.4083 14.2771 31.8285 15.5465 31.0669C15.739 30.9514 15.1179 31.2038 14.9137 31.297C14.5548 31.4607 14.2023 31.6383 13.8494 31.8148C13.416 32.0315 12.9875 32.2579 12.555 32.4764C11.7771 32.8693 9.59173 34.5273 8.64295 34.4324C8.59683 34.4278 9.50008 33.6957 10.2826 33.1667C10.7916 32.8225 11.9457 32.0904 12.4687 31.786C12.7319 31.6328 13.003 31.4934 13.2741 31.3545C13.4154 31.2822 13.8643 31.1532 13.7056 31.1532C11.9218 31.1532 8.27999 34.6005 6.91706 34.2598C6.9073 34.2573 7.18744 33.9204 8.24024 33.1955C9.51755 32.316 8.90547 32.735 10.225 31.9298C10.6087 31.6957 11.6647 31.4997 11.3469 31.1819C11.0367 30.8718 7.8622 33.1462 7.23347 32.9366C7.13065 32.9023 7.37053 32.6908 8.32654 31.9874C8.46969 31.882 9.6825 31.0057 9.87985 30.8655C10.024 30.7631 10.4583 30.5399 10.2826 30.5203C8.78137 30.3535 7.27218 32.7875 5.76646 32.6202C5.4222 32.5819 6.19793 32.0736 6.45682 31.8435C6.95367 31.4019 7.49654 30.9761 7.95259 30.4916C7.99091 30.4509 8.05657 30.4008 8.03889 30.3478C7.89416 29.9136 5.83421 31.2785 5.59387 31.0381C5.3203 30.7645 6.7157 29.7595 6.7157 29.456C6.7157 29.1618 5.6673 29.6264 5.5651 29.456C5.47651 29.3084 5.75929 29.0138 5.6514 28.852C5.44283 28.5391 4.83724 29.1002 5.21992 28.6219C5.40625 28.3889 5.14345 28.4393 5.04733 28.5931C3.48375 31.0948 6.28423 30.3579 6.28423 29.4848C6.28423 29.471 4.73819 30.1537 5.33498 30.7505C5.6211 31.0366 7.98442 30.0828 8.12518 29.8012C8.20082 29.6499 7.2335 29.8212 7.20471 29.83C6.78292 29.9584 6.17489 30.376 6.62941 30.8655C7.15523 31.4318 9.58311 30.7338 9.41961 29.9163C9.32297 29.4331 6.66668 30.1336 6.77323 30.2615C7.84306 31.5453 10.8244 31.1213 12.2386 31.0669C12.6453 31.0512 13.5298 31.1418 13.4179 30.7505C13.3977 30.6797 9.66995 29.694 9.82232 30.8368C9.96516 31.9081 12.8095 31.4287 13.4179 31.3545C13.6768 31.3229 14.411 31.2135 14.1658 31.1244C13.7018 30.9557 10.2914 30.771 10.2538 31.297C10.134 32.9742 15.8672 32.0401 16.6108 31.9586C17.2668 31.8867 17.5938 31.9011 18.2217 31.9011C18.51 31.9011 19.2647 32.0686 19.0846 31.8435C18.8441 31.5428 17.988 31.6359 17.7039 31.6422C17.0978 31.6556 17.0621 31.6744 16.467 31.7285C15.4726 31.8189 18.6544 32.4738 19.0846 31.6134C19.2017 31.3793 18.5694 31.4867 18.308 31.4983C17.9568 31.514 15.0265 31.7985 15.0288 31.8148C15.1686 32.7933 20.3922 32.2511 21.0694 32.1599C21.4384 32.1103 22.1013 32.2971 22.1625 31.9298C22.2361 31.4882 21.287 31.6997 20.8393 31.6997C19.175 31.6997 17.8053 32.3468 16.2081 32.6489C16.1139 32.6668 15.9737 32.7287 15.9205 32.6489C15.7797 32.4377 16.4161 32.5332 16.6684 32.5051C17.2051 32.4455 17.7472 32.4251 18.2792 32.3325C19.2421 32.1651 20.1484 31.8629 21.0694 31.5559C21.2161 31.507 20.7898 31.6924 20.6667 31.786C20.3385 32.0355 19.8161 32.4898 19.8325 32.9654C19.8608 33.7862 21.3141 33.6721 21.731 33.6557C24.8876 33.5319 28.0553 32.6082 31.1659 32.1024C32.0784 31.954 34.2393 31.3084 35.193 31.7572C35.3825 31.8464 35.2216 32.0858 35.1642 32.1599C34.431 33.1089 33.3522 33.7706 32.7192 34.8063C32.6986 34.8401 32.6658 34.8905 32.6905 34.9214C32.9917 35.2979 35.5129 33.2204 35.7971 32.9654C36.0327 32.7539 36.7764 32.1756 36.5737 32.4188C36.1518 32.9252 34.869 34.3216 34.1287 34.1735C33.7697 34.1017 34.6303 33.6385 34.9054 33.3968C35.1935 33.1437 35.5801 32.7717 35.9121 32.5627C36.0108 32.5005 36.267 32.3889 36.2573 32.5051C36.094 34.4648 31.623 36.7109 31.5399 38.3732C31.5249 38.6727 31.8897 38.5071 31.9713 38.4595C33.2425 37.7179 34.2152 36.492 35.1067 35.3529C35.1544 35.292 35.2682 35.2133 35.2218 35.1515C35.11 35.0025 34.4417 35.893 34.0137 36.4459C33.0442 37.6982 33.3507 37.2906 32.5179 38.7184C32.3263 39.0467 31.9876 39.5426 31.8563 39.9552C31.8272 40.0466 31.7653 40.2732 31.8563 40.2429C32.6054 39.9932 34.8389 36.063 34.5314 35.7556C34.4931 35.7172 34.4489 35.8272 34.4164 35.8706C34.1804 36.1852 33.582 37.0811 33.4384 37.3376C33.2536 37.6676 31.8191 40.5179 31.9426 40.7031C32.6488 41.7625 35.2778 37.8141 35.4519 37.3664C35.4949 37.2559 35.4842 37.0212 35.3656 37.0212C34.7071 37.0212 32.4092 40.9132 32.2015 41.5661C32.1005 41.8833 32.8848 41.5194 33.1795 41.3647C33.8289 41.0238 34.4634 40.4883 34.9341 39.9265C35.3016 39.4879 35.5364 38.913 35.5094 38.9197C35.0767 39.0279 33.6941 41.5918 33.6972 41.5949C33.924 41.8216 35.0446 40.1346 35.0492 40.1278C35.1964 39.9096 35.6267 39.2472 35.4807 39.4662C34.9386 40.2793 34.4255 41.1117 33.9561 41.9688C33.8593 42.1456 33.5169 42.6055 33.6972 42.5153C35.0915 41.8182 35.5239 39.1005 34.9341 37.8554C34.8012 37.5749 34.0063 37.0218 34.0999 36.6473C34.2309 36.1235 35.6568 34.7308 36.2286 34.9214C36.2692 34.9349 36.2861 34.9936 36.2861 35.0364C36.2861 36.2647 33.5534 36.8606 33.5534 38.0855C33.5534 38.3067 35.643 35.9634 35.1642 36.0432C33.8338 36.265 32.1424 38.2352 31.1659 38.9485C29.8601 39.9023 28.0089 41.1983 26.4197 41.6524C26.1195 41.7381 26.8366 41.1875 27.0525 40.962C27.3011 40.7024 27.5584 40.4511 27.8004 40.1854C28.2818 39.6568 28.8418 38.9695 29.2674 38.4019C29.6953 37.8315 30.1196 37.1075 30.0729 37.1075C29.0361 37.1075 26.9568 39.1771 26.1896 39.7251C25.8585 39.9616 25.5083 40.1713 25.1828 40.4155C25.0852 40.4887 24.8246 40.6034 24.9239 40.6744C25.0709 40.7793 28.9942 39.0467 29.3537 38.8909C30.3701 38.4505 30.4452 38.4317 31.3097 37.9129C31.5219 37.7856 32.1351 37.5921 31.9138 37.4815C31.7298 37.3895 30.236 38.5399 29.6126 39.0348C29.0905 39.4492 28.5926 39.8935 28.0881 40.3292C27.7132 40.653 26.8749 40.8554 26.995 41.336C27.1047 41.7747 27.8622 41.0609 28.2607 40.847C29.5387 40.1606 30.5978 39.3171 31.7412 38.4595C32.1273 38.1699 31.1174 39.1962 30.792 39.5525C30.3096 40.0809 29.7273 40.4159 29.2387 40.9045C29.2183 40.9248 29.2963 40.9065 29.325 40.9045C29.8406 40.8677 30.2861 40.6389 30.7344 40.3867C31.3472 40.042 31.8637 39.613 32.4316 39.2074C32.7633 38.9704 31.8189 39.7455 31.5111 40.0128C31.1722 40.307 30.2932 40.8155 30.1304 41.2497C29.9916 41.6198 30.8754 40.9769 31.2234 40.7894C31.5669 40.6045 32.0875 40.3931 32.4028 40.1566C32.4949 40.0876 32.1727 40.1566 32.0576 40.1566C31.6024 40.1566 31.1969 40.1454 30.7344 40.2141C29.797 40.3535 28.8742 40.5781 27.9442 40.7607C26.0437 41.1337 24.1876 41.3935 22.2488 41.3935C21.7213 41.3935 21.194 41.408 20.6667 41.4223C20.4836 41.4272 20.0293 41.5238 20.1202 41.3647C21.4879 38.9712 26.8801 38.7757 28.7209 36.9349C28.8774 36.7784 28.271 36.9279 28.0593 36.9925C27.6793 37.1084 27.3093 37.2552 26.9375 37.3952C25.2993 38.0117 23.649 38.6671 22.0762 39.4375C21.6639 39.6394 21.2706 39.8783 20.8681 40.0991C20.623 40.2335 19.8801 40.4538 20.1489 40.5305C20.532 40.64 25.2611 38.6591 26.017 38.4595C27.0918 38.1756 27.355 38.1565 28.347 37.9705C28.5096 37.94 28.9904 37.8248 28.836 37.8842C26.2436 38.8812 23.6082 39.7196 21.0407 40.7894C20.7793 40.8983 21.5313 40.505 21.7885 40.3867C22.0619 40.261 22.3454 40.1583 22.6227 40.0415C23.4209 39.7055 24.2133 39.3782 25.0677 39.2074C25.3232 39.1563 26.0007 38.9127 25.8444 39.1211C25.3816 39.7381 21.674 40.211 21.5584 40.9045C21.5244 41.1087 21.9701 40.8369 22.1625 40.7607C22.5019 40.6262 22.833 40.4715 23.1693 40.3292C23.5809 40.155 23.9941 39.9847 24.4062 39.8114C25.6597 39.2844 27.1141 38.8044 28.0593 37.7691C28.1114 37.712 28.229 37.6224 28.1744 37.5678C27.9164 37.3098 26.5813 38.176 25.8444 38.5745C25.3046 38.8665 24.7627 39.1553 24.2336 39.4662C23.6693 39.7979 23.1017 40.1269 22.5652 40.5018C22.2484 40.7232 21.4865 41.0627 21.7598 41.336C22.3191 41.8953 27.1832 37.7782 26.1896 37.0212C25.5034 36.4984 23.372 37.5268 22.8528 37.7116C21.2393 38.2859 19.5461 38.8488 18.0779 39.7539C17.6677 40.0067 16.7811 40.4569 17.0999 40.8182C17.53 41.3057 22.6618 39.0688 23.3706 38.7184C23.382 38.7127 25.3549 37.8337 25.0677 37.3376C24.6861 36.6784 22.5526 37.4302 22.22 37.539C20.6602 38.0489 19.1495 38.8267 17.7614 39.6964C17.1474 40.0811 15.6511 41.1366 16.3807 41.2784C18.1995 41.6321 21.181 39.8211 22.709 38.9772C22.9915 38.8212 24.3364 38.2487 23.9171 37.5965C22.7458 35.7744 17.2124 37.9 15.8917 38.6321C15.5012 38.8485 13.6533 39.8445 13.9645 40.6744C14.193 41.2839 16.1318 40.5201 16.2657 40.473C17.3637 40.0869 23.3148 37.5529 23.1405 36.1583C23.0264 35.2457 20.914 35.9444 20.6955 36.0144C18.4499 36.7347 15.8084 38.1082 14.2234 39.8977C13.8986 40.2643 13.2674 40.9415 13.6481 41.2497C14.3876 41.8484 19.8744 38.8785 20.6955 38.3732C20.9922 38.1905 22.7763 37.2169 22.4214 36.4747C22.0754 35.7514 19.6368 36.9 19.4873 36.9637C17.7411 37.7077 15.9823 38.6475 14.5398 39.8977C14.4859 39.9444 13.7635 40.5332 14.1658 40.8182C15.3954 41.6892 18.3713 39.7058 19.3723 39.0923C19.4474 39.0463 20.974 38.1339 20.5516 37.7116C19.9082 37.0682 16.8201 39.1007 16.3232 39.4375C15.9263 39.7065 15.5524 40.0078 15.1726 40.3004C14.9411 40.4788 14.2338 40.7833 14.511 40.8757C15.7776 41.2979 18.3658 39.3855 19.4586 38.8622C19.5869 38.8008 20.9727 38.294 21.0119 37.9417C21.0362 37.7232 20.2839 37.8096 19.401 38.1718C17.986 38.7523 16.6699 39.5722 15.3452 40.3292C15.0096 40.521 14.5528 41.2261 14.3384 40.9045C14.2639 40.7928 15.509 39.8777 16.1218 39.2937C16.643 38.7969 19.805 35.4872 19.3435 34.7488C18.9463 34.1132 16.9644 35.2915 16.7547 35.4104C15.454 36.1475 10.3871 39.9924 10.225 41.451C10.189 41.775 10.8213 41.1783 11.088 40.9908C11.4802 40.715 11.8523 40.4118 12.2386 40.1278C13.7845 38.9917 15.5189 37.8536 16.5533 36.187C16.7631 35.8491 17.1784 35.2873 16.8697 35.0364C16.1583 34.4584 12.4979 38.7253 12.0085 39.3512C11.5222 39.9729 10.848 40.8026 10.9729 40.8182C12.6304 41.0254 16.7768 32.7855 12.67 36.676C12.2561 37.0682 11.8836 37.503 11.5195 37.9417C11.0871 38.4626 10.6871 39.0097 10.2826 39.5525C9.88032 40.0922 8.6381 41.4368 8.38407 42.1989C8.28988 42.4815 8.90126 41.8983 9.13196 41.7099C9.5009 41.4086 9.86242 41.0983 10.225 40.7894C10.7173 40.3701 14.3118 37.2196 13.9932 36.4459C13.8441 36.0837 13.2182 36.6487 12.9002 36.8774C12.3296 37.2878 8.81909 40.434 9.90861 41.2209C10.4399 41.6046 12.9928 39.3878 13.4179 39.006C13.777 38.6836 14.6066 37.4939 14.3672 37.9129C14.112 38.3595 11.8972 41.0792 12.2961 41.3072C12.9256 41.6669 14.0795 40.5281 14.4535 40.1854C14.6985 39.9607 15.3304 39.3879 15 39.3512C14.0339 39.2438 13.1914 41.0764 12.2386 41.2497C12.1597 41.264 11.958 39.9011 11.9509 39.869C11.8059 39.2083 11.6567 38.6467 11.2606 38.0855C10.2386 36.6377 8.19299 36.2337 7.43483 34.4899C7.38513 34.3756 7.33642 34.2608 7.291 34.1447C7.00789 33.4212 6.90323 31.786 5.96781 31.786C5.89044 31.786 5.35009 31.6695 5.33498 31.6997C5.16531 32.0391 6.14964 33.1574 6.16917 33.6845C6.26518 36.2767 6.92483 38.6904 7.26224 41.2209C7.29618 41.4755 7.36237 43.8365 7.95259 43.7522C8.38842 43.69 9.02433 38.9252 9.10319 38.3732C9.10497 38.3607 9.6213 35.9857 9.41961 35.9857C8.53502 35.9857 7.91428 40.1746 7.89506 40.7607C7.88124 41.1824 7.99345 42.1571 8.3553 41.94C9.28943 41.3796 9.10634 35.949 8.38407 35.7268C8.03248 35.6186 7.68435 37.3187 7.66495 37.3952C7.47606 38.1396 6.68847 40.7453 7.83754 41.1921C8.46349 41.4356 8.51646 40.1808 8.49913 39.8977C8.42502 38.6872 8.03357 37.4566 7.78001 36.2733C7.76487 36.2027 7.52574 35.0222 7.40606 35.094C7.03678 35.3155 7.66605 39.5138 8.32654 39.2937C9.11698 39.0302 7.81204 36.3664 8.70048 35.9857C9.55895 35.6178 9.05297 39.4546 9.62096 39.6676C10.4361 39.9733 11.7209 37.0789 11.6057 36.9062C11.4724 36.7061 11.1239 37.034 10.9442 37.1938C10.44 37.6419 9.28431 38.76 9.33331 39.495C9.35854 39.8735 10.078 39.2965 10.3976 39.0923C10.8077 38.8303 12.6851 37.4965 11.9509 36.7623C11.3187 36.1301 9.49115 38.1212 9.70726 38.8622C9.95123 39.6986 11.5047 38.8202 11.6633 38.3444C11.8088 37.9077 10.8728 38.8303 10.5414 39.1498C9.93139 39.7381 10.0305 39.8424 10.714 40.0703" fill="none" opacity="1" stroke="#007aff" stroke-linecap="round" stroke-linejoin="round" stroke-width="1.37753"/>
</g>
</svg>
